<?xml version="1.0" encoding="UTF-8"?>
<svg width="512" height="512" version="1.1" viewBox="0 0 512 512" xmlns="http://www.w3.org/2000/svg" xmlns:xlink="http://www.w3.org/1999/xlink">
 <defs>
  <linearGradient id="a">
   <stop style="stop-color:#ececec" offset="0"/>
   <stop style="stop-color:#8f8f8f" offset="1"/>
  </linearGradient>
  <linearGradient id="z" x1="256.4" x2="256.9" y1="65.69" y2="425.2" gradientUnits="userSpaceOnUse">
   <stop style="stop-color:#474747" offset="0"/>
   <stop style="stop-color:#5c5c5c" offset="1"/>
  </linearGradient>
  <radialGradient id="y" cx="16.75" cy="291" r="6.6" gradientTransform="matrix(.742 -.457 .723 1.17 -205.6 -42)" gradientUnits="userSpaceOnUse" xlink:href="#a"/>
  <radialGradient id="n" cx="16.75" cy="291" r="6.6" gradientTransform="matrix(.777 -.479 .757 1.23 -195.1 -43)" gradientUnits="userSpaceOnUse" xlink:href="#a"/>
  <radialGradient id="x" cx="16.75" cy="291" r="6.6" gradientTransform="matrix(.762 -.469 .742 1.20 4.5 97.8)" gradientUnits="userSpaceOnUse" xlink:href="#a"/>
  <radialGradient id="m" cx="16.75" cy="291" r="6.6" gradientTransform="matrix(-.738 -.536 -.874 1.36 582.7 29)" gradientUnits="userSpaceOnUse" xlink:href="#a"/>
  <radialGradient id="c" cx="16.75" cy="291" r="6.6" gradientTransform="matrix(-.738 -.536 -.874 1.36 602.7 15)" gradientUnits="userSpaceOnUse" xlink:href="#a"/>
  <radialGradient id="l" cx="16.75" cy="291" r="6.6" gradientTransform="matrix(-.733 -.566 -.867 1.31 620.7 17)" gradientUnits="userSpaceOnUse" xlink:href="#a"/>
  <radialGradient id="i" cx="16.75" cy="291" r="6.6" gradientTransform="matrix(-.733 -.566 -.867 1.31 639.7 3)" gradientUnits="userSpaceOnUse" xlink:href="#a"/>
  <radialGradient id="h" cx="16.75" cy="291" r="6.6" gradientTransform="matrix(-.733 -.566 -.867 1.31 659.7 -11)" gradientUnits="userSpaceOnUse" xlink:href="#a"/>
  <radialGradient id="e" cx="16.75" cy="291" r="6.6" gradientTransform="matrix(-.733 -.566 -.867 1.31 680.7 -25)" gradientUnits="userSpaceOnUse" xlink:href="#a"/>
  <radialGradient id="g" cx="16.75" cy="291" r="6.6" gradientTransform="matrix(-.733 -.566 -.867 1.31 700.7 -39)" gradientUnits="userSpaceOnUse" xlink:href="#a"/>
  <radialGradient id="k" cx="16.75" cy="291" r="6.6" gradientTransform="matrix(-.733 -.566 -.867 1.31 719.7 -52)" gradientUnits="userSpaceOnUse" xlink:href="#a"/>
  <radialGradient id="j" cx="16.75" cy="291" r="6.6" gradientTransform="matrix(-.733 -.566 -.867 1.31 740.7 -66)" gradientUnits="userSpaceOnUse" xlink:href="#a"/>
  <radialGradient id="f" cx="16.75" cy="291" r="6.6" gradientTransform="matrix(-.733 -.566 -.867 1.31 759.7 -79)" gradientUnits="userSpaceOnUse" xlink:href="#a"/>
  <radialGradient id="b" cx="16.75" cy="291" r="6.6" gradientTransform="matrix(-.738 -.536 -.874 1.36 562.7 43)" gradientUnits="userSpaceOnUse" xlink:href="#a"/>
  <radialGradient id="d" cx="16.75" cy="291" r="6.6" gradientTransform="matrix(-.730 -.530 -.864 1.34 539.7 61.1)" gradientUnits="userSpaceOnUse" xlink:href="#a"/>
  <radialGradient id="p" cx="16.75" cy="291" r="6.6" gradientTransform="matrix(.762 -.469 .742 1.2 -15.5 83.7)" gradientUnits="userSpaceOnUse" xlink:href="#a"/>
  <radialGradient id="o" cx="16.75" cy="291" r="6.6" gradientTransform="matrix(.762 -.469 .742 1.2 -34.5 70.7)" gradientUnits="userSpaceOnUse" xlink:href="#a"/>
  <radialGradient id="w" cx="16.75" cy="291" r="6.6" gradientTransform="matrix(.762 -.469 .742 1.2 -54.9 57.3)" gradientUnits="userSpaceOnUse" xlink:href="#a"/>
  <radialGradient id="v" cx="16.75" cy="291" r="6.6" gradientTransform="matrix(.762 -.469 .742 1.2 -75.4 43)" gradientUnits="userSpaceOnUse" xlink:href="#a"/>
  <radialGradient id="q" cx="16.75" cy="291" r="6.6" gradientTransform="matrix(.762 -.469 .742 1.2 -94.9 29)" gradientUnits="userSpaceOnUse" xlink:href="#a"/>
  <radialGradient id="u" cx="16.75" cy="291" r="6.6" gradientTransform="matrix(.762 -.469 .742 1.2 -114 16)" gradientUnits="userSpaceOnUse" xlink:href="#a"/>
  <radialGradient id="t" cx="16.75" cy="291" r="6.6" gradientTransform="matrix(.762 -.469 .742 1.2 -131.9 3)" gradientUnits="userSpaceOnUse" xlink:href="#a"/>
  <radialGradient id="s" cx="16.75" cy="291" r="6.6" gradientTransform="matrix(.762 -.469 .742 1.2 -151.3 -10)" gradientUnits="userSpaceOnUse" xlink:href="#a"/>
  <radialGradient id="r" cx="16.75" cy="291" r="6.6" gradientTransform="matrix(.762 -.469 .742 1.2 -170.7 -23)" gradientUnits="userSpaceOnUse" xlink:href="#a"/>
  <linearGradient id="aa" x1="153.3" x2="250" y1="362.6" y2="430" gradientUnits="userSpaceOnUse">
   <stop style="stop-color:#3d3d3d" offset="0"/>
   <stop style="stop-color:#2e2e2e" offset="1"/>
  </linearGradient>
 </defs>
 <path d="m361.7 373.9c0.57 0.6887 0.6759 3.074 0.5721 4.334-0.1946 4.323-3.268 7.851-6.836 9.146-3.044 0.7984-6.04-1.369-7.533-4.005 0 0 3.785-2.405 13.8-9.474z" fill="url(#l)"/>
 <path d="m12 279.5c-1.941 3.243 0.4076 11.12 5.155 12.14 2.836 0.8363 5.859-0.9043 7.488-3.123z" fill="url(#y)"/>
 <path d="m32.9 294.2c-1.424 2.114 0.0939 9.817 5.167 12.25 2.97 0.8758 6.136-0.947 7.842-3.271z" fill="url(#n)"/>
 <path d="m227.8 428.5c-1.353 1.719-0.2417 10.14 5.219 12.28 2.91 0.858 5.949-1.209 7.621-3.486z" fill="url(#x)"/>
 <path d="m322.7 401.5c1.472 4.516-0.5084 11.25-6.311 13.63-3.301 1.138-6.069-1.621-7.574-4.206 0 0 9.21-6.21 13.89-9.422z" fill="url(#m)"/>
 <path d="m342.7 387.3c1.582 4.263-0.3842 11.26-6.311 13.69-3.067 0.95-6.085-1.246-7.59-3.831z" fill="url(#c)"/>
 <path d="m381.7 360.5c0.57 0.6887 0.6759 3.074 0.5721 4.334-0.1946 4.323-3.268 7.851-6.836 9.146-3.044 0.7984-6.04-1.369-7.533-4.005 0 0 3.785-2.405 13.8-9.474z" fill="url(#i)"/>
 <path d="m401.7 346.3c0.57 0.6887 0.6759 3.074 0.5721 4.334-0.1946 4.323-3.268 7.851-6.836 9.146-3.044 0.7984-6.04-1.369-7.533-4.005 0 0 3.785-2.405 13.8-9.474z" fill="url(#h)"/>
 <path d="m422.7 332.4c0.57 0.6887 0.6759 3.074 0.5721 4.334-0.1946 4.323-3.268 7.851-6.836 9.146-3.044 0.7984-6.04-1.369-7.533-4.005 0 0 3.785-2.405 13.8-9.474z" fill="url(#e)"/>
 <path d="m442.7 318.4c0.57 0.6887 0.6759 3.074 0.5721 4.334-0.1946 4.323-3.268 7.851-6.836 9.146-3.044 0.7984-6.04-1.369-7.533-4.005 0 0 3.785-2.405 13.8-9.474z" fill="url(#g)"/>
 <path d="m461.7 305.2c0.57 0.6887 0.6759 3.074 0.5721 4.334-0.1946 4.323-3.268 7.851-6.836 9.146-3.044 0.7984-6.04-1.369-7.533-4.005 0 0 3.785-2.405 13.8-9.474z" fill="url(#k)"/>
 <path d="m481.7 291.1c0.57 0.6887 0.6759 3.074 0.5721 4.334-0.1946 4.323-3.268 7.851-6.836 9.146-3.044 0.7984-6.04-1.369-7.533-4.005 0 0 3.785-2.405 13.8-9.474z" fill="url(#j)"/>
 <path d="m500.7 278c0.57 0.6887 0.6759 3.074 0.5721 4.334-0.1946 4.323-3.268 7.851-6.836 9.146-3.044 0.7984-6.04-1.369-7.533-4.005 0 0 3.785-2.405 13.8-9.474z" fill="url(#f)"/>
 <path d="m302.3 415.2c1.472 4.516-0.5084 11.25-6.311 13.63-3.301 1.138-6.069-1.621-7.574-4.206 0 0 9.21-6.21 13.89-9.422z" fill="url(#b)"/>
 <path d="m282 429.4c1.455 4.466-0.5029 11.12-6.243 13.48-3.265 1.125-6.003-1.604-7.491-4.16 0 0 9.109-6.142 13.73-9.319z" fill="url(#d)"/>
 <path d="m207.8 414.4c-1.353 1.719-0.2417 10.14 5.219 12.28 2.91 0.858 5.949-1.209 7.621-3.486z" fill="url(#p)"/>
 <path d="m188.8 401.4c-1.353 1.719-0.2417 10.14 5.219 12.28 2.91 0.858 5.949-1.209 7.621-3.486z" fill="url(#o)"/>
 <path d="m168.9 388c-2.54 3.282-0.3667 10.18 5.094 12.32 2.91 0.858 6.355-1.209 8.027-3.486z" fill="url(#w)"/>
 <path d="m147.9 373.3c-2.04 4.063-0.2729 10.68 5.187 12.82 2.91 0.858 5.98-1.74 7.652-4.017z" fill="url(#v)"/>
 <path d="m128.5 360.1c-2.04 4.063-0.2729 10.68 5.187 12.82 2.91 0.858 5.98-1.74 7.652-4.017z" fill="url(#q)"/>
 <path d="m109.4 346.6c-2.04 4.063-0.4917 10.55 4.969 12.69 2.91 0.858 6.355-1.428 8.183-3.548z" fill="url(#u)"/>
 <path d="m91.4 334.2c-2.071 2.875-0.6167 10.36 4.844 12.5 2.91 0.858 6.699-1.24 8.371-3.517z" fill="url(#t)"/>
 <path d="m72 320.8c-1.54 1.719 8e-3 10.3 5.406 12.28 2.91 0.858 5.762-1.209 7.433-3.486z" fill="url(#s)"/>
 <path d="m52.6 307.6c-1.54 1.719 8e-3 10.3 5.406 12.28 2.91 0.858 5.762-1.209 7.433-3.486z" fill="url(#r)"/>
 <path d="m501.7 277.8c2.843 11.42-9.506 18.94-13.7 9.495m-5.238 3.75c2.843 11.42-9.774 19.12-13.97 9.674m-6.337 4.337c2.843 11.42-9.73 19.08-13.92 9.629m-5.811 3.679c2.843 11.42-9.506 18.94-13.7 9.495m-6.151 4.457c2.843 11.42-9.729 19.03-13.92 9.584m-6.207 4.431c2.843 11.42-9.774 18.99-13.97 9.54m-6.416 4.358c2.843 11.42-9.685 19.12-13.88 9.674m-5.742 3.825c2.843 11.42-9.467 19.12-13.66 9.67m-5.891 3.546c2.843 11.42-9.372 19.44-13.57 9.986m-6.812 4.208c2.843 11.42-9.372 19.44-13.57 9.986m-6.584 3.795c2.843 11.42-9.372 19.44-13.57 9.986m-6.905 4.443c2.843 11.42-9.238 18.68-13.43 9.227m-183.5-108.8c-8.783 9.797-14.92-3.95-12.81-9.234m-6.385-3.994c-8.783 9.797-15.28-3.503-13.17-8.788m-6.385-4.793c-8.783 9.797-15.28-3.503-13.17-8.788m-7.981-5.592c-8.783 9.797-15.64-3.771-13.03-9.323m92.45 64.05c-8.783 9.797-16.4-3.325-13.12-9.189m31.35 21.61c-8.783 9.797-17.02-2.7-13.12-8.922m32.29 22.05c-8.627 10.64-17.08-2.07-13.27-8.873m32.54 22.46c-8.783 9.797-16.49-2.432-13.08-9.056m34.28 23.34c-8.783 9.797-17.16-3.012-13.35-8.966m32.85 22.64c-8.783 9.797-15.28-3.726-13.17-9.011m32.32 21.79c-8.783 9.797-15.28-3.503-13.17-8.788m33.12 22.92c-8.783 9.797-15.28-3.503-13.17-8.788" style="fill:none;stroke-width:1px;stroke:#000"/>
 <path d="m2.062 242.5-0.3106 29.84 253.7 175.7 254.7-176.4-0.3945-27.23-254.1 175.2z" fill="url(#aa)"/>
 <path d="m2.134 242.6 253.5 177.5 254.3-175.7-253.6-179.3z" fill="url(#z)"/>
 <path d="m255.6 419.9-0.1866 27.95m-253.7-204.8 0.0454 29.28 253.7 175.5 254.7-176.3-0.015-26.89m-508-1.59 254.3-177.6 253.4 179.2-254.3 175.3z" style="fill:none;stroke-width:1px;stroke:#000"/>
 <ellipse cx="255" cy="380" rx="14.9" ry="11.6" fill="#c1c1c1"/>
 <path d="m185 244c8.83-6.08 8.72-14.9 8.5-19-7.67-5.41-23-16.2-23-16.2s-13.2 9.07-19.8 13.6c3.28 2.32 6.56 4.63 9.84 6.95 4.01-2.75 12-8.24 12-8.24l7.82 5.52c3e-3 2.48-0.804 4.77-2.03 6.84-11.3 18.1-45.6-0.441-50-16.2 0.0849-7.83 8.71-17.4 25.6-9.05l7.42-5.35c-10.6-9.16-28-11.6-39.3 2.39-17.5 21.7 33.4 59.5 62.9 38.8zm-60.3 40s12-8.19 18-12.3c16.2-12.8-6.23-30.5-22.2-28.5-0.0222-7.6-11.1-15.6-22.8-16.4-12.3-0.3-31.6 15.8-31.6 15.8zm78.7-54.2 8.44-5.78s-8.16-9.93-12.2-14.9c5.13-3.51 15.4-10.5 15.4-10.5l21.5 8.54 8.88-6.08-76.4-29.2-7.53 5.15zm-106 6.01c4.57-1.17 12.3 3.61 12 7.09-1.72 4.96-12.4 10.6-12.4 10.6l-13.3-9.41s8.61-6.72 13.8-8.33zm105-42-10.3 7.04-13.8-16.8zm-80.1 57.6c6.23-0.985 14.8 5.23 13.3 9.36-2.89 4.78-13.4 10.8-13.4 10.8l-15.6-11s9.71-7.84 15.8-9.07z" fill="#c1c1c1"/>
 <path d="m366 196-110 76.4c-2.28 1.58-2.86 4.66-1.3 6.92 1.56 2.26 4.65 2.8 6.93 1.23l110-76.4c2.28-1.58 2.86-4.66 1.3-6.92-1.59-2.3-4.7-2.77-6.93-1.23zm-63.2 7.68-49.8 33.5c-2.28 1.58-2.86 4.66-1.3 6.92 1.56 2.26 4.65 2.8 6.93 1.23l49.8-33.5c2.28-1.58 2.86-4.66 1.3-6.92-1.59-2.3-4.7-2.77-6.93-1.23zm-62.6 43-39.2 26.9c-2.28 1.58-2.86 4.66-1.3 6.92 1.56 2.26 4.65 2.8 6.93 1.23l39.2-26.9c2.28-1.58 2.86-4.66 1.3-6.92-1.59-2.3-4.7-2.77-6.93-1.23zm58.6 32.5-85.6 59c-2.28 1.58-2.86 4.66-1.3 6.92 1.56 2.26 4.65 2.8 6.93 1.23l85.6-59c2.28-1.58 2.86-4.66 1.3-6.91-1.59-2.3-4.7-2.77-6.93-1.23zm-55.5 2.1-55.8 38.3c-2.28 1.58-2.86 4.66-1.3 6.92 1.56 2.26 4.65 2.8 6.93 1.23l55.8-38.3c2.28-1.58 2.86-4.66 1.3-6.91-1.58-2.29-4.69-2.78-6.93-1.23zm-55.3 1.76-26.5 18.2c-2.28 1.58-2.86 4.66-1.3 6.92 1.56 2.26 4.65 2.8 6.93 1.23l26.5-18.2c2.28-1.58 2.86-4.66 1.3-6.91-1.58-2.29-4.69-2.78-6.93-1.23z" fill="#c1c1c1"/>
</svg>
