<?xml version="1.0" encoding="UTF-8" standalone="no"?>
<svg
   width="512"
   height="512"
   version="1.1"
   viewBox="0 0 512 512"
   id="svg5"
   sodipodi:docname="chip.svg"
   inkscape:version="1.4.2 (ebf0e940d0, 2025-05-08)"
   xmlns:inkscape="http://www.inkscape.org/namespaces/inkscape"
   xmlns:sodipodi="http://sodipodi.sourceforge.net/DTD/sodipodi-0.dtd"
   xmlns="http://www.w3.org/2000/svg"
   xmlns:svg="http://www.w3.org/2000/svg">
  <defs
     id="defs5" />
  <sodipodi:namedview
     id="namedview5"
     pagecolor="#ffffff"
     bordercolor="#000000"
     borderopacity="0.25"
     inkscape:showpageshadow="2"
     inkscape:pageopacity="0.0"
     inkscape:pagecheckerboard="0"
     inkscape:deskcolor="#d1d1d1"
     inkscape:zoom="1.4394531"
     inkscape:cx="256"
     inkscape:cy="256"
     inkscape:window-width="1920"
     inkscape:window-height="995"
     inkscape:window-x="0"
     inkscape:window-y="0"
     inkscape:window-maximized="1"
     inkscape:current-layer="svg5" />
  <path
     d="m43.5 11.7c-5.84 0-10.6 4.75-10.6 10.6s4.73 10.6 10.6 10.6c5.84 0 10.6-4.76 10.6-10.6s-4.73-10.6-10.6-10.6zm42.5 0c-5.85 0-10.6 4.75-10.6 10.6s4.73 10.6 10.6 10.6c5.84 0 10.6-4.76 10.6-10.6s-4.75-10.6-10.6-10.6zm43 0c-5.85 0-10.6 4.75-10.6 10.6s4.73 10.6 10.6 10.6c5.84 0 10.6-4.76 10.6-10.6s-4.75-10.6-10.6-10.6zm42 0c-5.84 0-10.6 4.75-10.6 10.6s4.73 10.6 10.6 10.6c5.84 0 10.6-4.76 10.6-10.6s-4.76-10.6-10.6-10.6zm43 0c-5.85 0-10.6 4.75-10.6 10.6s4.73 10.6 10.6 10.6c5.84 0 10.6-4.76 10.6-10.6s-4.73-10.6-10.6-10.6zm42 0c-5.84 0-10.6 4.75-10.6 10.6s4.73 10.6 10.6 10.6c5.84 0 10.6-4.76 10.6-10.6s-4.76-10.6-10.6-10.6zm43 0c-5.85 0-10.6 4.75-10.6 10.6s4.72 10.6 10.6 10.6c5.84 0 10.6-4.76 10.6-10.6s-4.75-10.6-10.6-10.6zm42 0c-5.85 0-10.6 4.75-10.6 10.6s4.73 10.6 10.6 10.6c5.85 0 10.6-4.76 10.6-10.6s-4.73-10.6-10.6-10.6zm43 0c-5.84 0-10.6 4.75-10.6 10.6s4.75 10.6 10.6 10.6c5.84 0 10.6-4.76 10.6-10.6s-4.72-10.6-10.6-10.6zm42 0c-5.84 0-10.6 4.75-10.6 10.6s4.72 10.6 10.6 10.6c5.84 0 10.6-4.76 10.6-10.6s-4.75-10.6-10.6-10.6zm43 0c-5.85 0-10.6 4.75-10.6 10.6s4.73 10.6 10.6 10.6c5.84 0 10.6-4.76 10.6-10.6s-4.73-10.6-10.6-10.6zm-457 21.2c-5.85 0-10.6 4.73-10.6 10.6 0 5.84 4.73 10.6 10.6 10.6 5.84 0 10.6-4.73 10.6-10.6 0-5.84-4.73-10.6-10.6-10.6zm489 0c-5.84 0-10.6 4.73-10.6 10.6 0 5.84 4.72 10.6 10.6 10.6 5.84 0 10.6-4.73 10.6-10.6 0-5.84-4.75-10.6-10.6-10.6zm-489 42.5c-5.85 0-10.6 4.73-10.6 10.6 0 5.85 4.73 10.6 10.6 10.6 5.84 0 10.6-4.73 10.6-10.6 0-5.84-4.73-10.6-10.6-10.6zm489 0c-5.84 0-10.6 4.73-10.6 10.6 0 5.85 4.72 10.6 10.6 10.6 5.84 0 10.6-4.73 10.6-10.6 0-5.84-4.75-10.6-10.6-10.6zm-489 42c-5.85 0-10.6 4.73-10.6 10.6 0 5.85 4.73 10.6 10.6 10.6 5.84 0 10.6-4.73 10.6-10.6 0-5.85-4.73-10.6-10.6-10.6zm489 0c-5.84 0-10.6 4.73-10.6 10.6 0 5.85 4.72 10.6 10.6 10.6 5.84 0 10.6-4.73 10.6-10.6 0-5.85-4.75-10.6-10.6-10.6zm-489 43c-5.85 0-10.6 4.76-10.6 10.6s4.73 10.6 10.6 10.6c5.84 0 10.6-4.73 10.6-10.6 0-5.84-4.73-10.6-10.6-10.6zm489 0c-5.84 0-10.6 4.76-10.6 10.6s4.72 10.6 10.6 10.6c5.84 0 10.6-4.73 10.6-10.6 0-5.84-4.75-10.6-10.6-10.6zm-489 42c-5.85 0-10.6 4.75-10.6 10.6s4.73 10.6 10.6 10.6c5.84 0 10.6-4.73 10.6-10.6 0-5.84-4.73-10.6-10.6-10.6zm489 0c-5.84 0-10.6 4.75-10.6 10.6s4.72 10.6 10.6 10.6c5.84 0 10.6-4.73 10.6-10.6 0-5.84-4.75-10.6-10.6-10.6zm-489 43c-5.85 0-10.6 4.73-10.6 10.6 0 5.85 4.73 10.6 10.6 10.6 5.84 0 10.6-4.73 10.6-10.6 0-5.85-4.73-10.6-10.6-10.6zm489 0c-5.84 0-10.6 4.73-10.6 10.6 0 5.85 4.72 10.6 10.6 10.6 5.84 0 10.6-4.73 10.6-10.6 0-5.85-4.75-10.6-10.6-10.6zm-489 42c-5.85 0-10.6 4.75-10.6 10.6 0 5.84 4.73 10.6 10.6 10.6 5.84 0 10.6-4.72 10.6-10.6 0-5.84-4.73-10.6-10.6-10.6zm489 0c-5.84 0-10.6 4.75-10.6 10.6 0 5.84 4.72 10.6 10.6 10.6 5.84 0 10.6-4.72 10.6-10.6 0-5.84-4.75-10.6-10.6-10.6zm-489 43c-5.85 0-10.6 4.72-10.6 10.6 0 5.84 4.73 10.6 10.6 10.6 5.84 0 10.6-4.75 10.6-10.6 0-5.84-4.73-10.6-10.6-10.6zm489 0c-5.84 0-10.6 4.72-10.6 10.6 0 5.84 4.72 10.6 10.6 10.6 5.84 0 10.6-4.75 10.6-10.6 0-5.84-4.75-10.6-10.6-10.6zm-489 42c-5.85 0-10.6 4.73-10.6 10.6 0 5.85 4.73 10.6 10.6 10.6 5.84 0 10.6-4.73 10.6-10.6 0-5.85-4.73-10.6-10.6-10.6zm489 0c-5.84 0-10.6 4.73-10.6 10.6 0 5.85 4.72 10.6 10.6 10.6 5.84 0 10.6-4.73 10.6-10.6 0-5.85-4.75-10.6-10.6-10.6zm-489 43c-5.85 0-10.6 4.75-10.6 10.6 0 5.84 4.73 10.6 10.6 10.6 5.84 0 10.6-4.72 10.6-10.6 0-5.84-4.73-10.6-10.6-10.6zm489 0c-5.84 0-10.6 4.75-10.6 10.6 0 5.84 4.72 10.6 10.6 10.6 5.84 0 10.6-4.72 10.6-10.6 0-5.84-4.75-10.6-10.6-10.6zm-489 43c-5.85 0-10.6 4.72-10.6 10.6 0 5.84 4.73 10.6 10.6 10.6 5.84 0 10.6-4.75 10.6-10.6 0-5.84-4.73-10.6-10.6-10.6zm489 0c-5.84 0-10.6 4.72-10.6 10.6 0 5.84 4.72 10.6 10.6 10.6 5.84 0 10.6-4.75 10.6-10.6 0-5.84-4.75-10.6-10.6-10.6zm-457 20.4c-5.85 0-10.6 4.75-10.6 10.6 0 5.84 4.73 10.6 10.6 10.6 5.84 0 10.6-4.72 10.6-10.6 0-5.84-4.73-10.6-10.6-10.6zm42.5 0c-5.84 0-10.6 4.75-10.6 10.6 0 5.84 4.73 10.6 10.6 10.6 5.85 0 10.6-4.72 10.6-10.6 0-5.84-4.73-10.6-10.6-10.6zm42 0c-5.85 0-10.6 4.75-10.6 10.6 0 5.84 4.73 10.6 10.6 10.6 5.85 0 10.6-4.72 10.6-10.6 0-5.84-4.75-10.6-10.6-10.6zm43 0c-5.85 0-10.6 4.75-10.6 10.6 0 5.84 4.73 10.6 10.6 10.6 5.84 0 10.6-4.72 10.6-10.6 0-5.84-4.73-10.6-10.6-10.6zm43 0c-5.84 0-10.6 4.75-10.6 10.6 0 5.84 4.73 10.6 10.6 10.6 5.85 0 10.6-4.72 10.6-10.6 0-5.84-4.73-10.6-10.6-10.6zm42 0c-5.85 0-10.6 4.75-10.6 10.6 0 5.84 4.73 10.6 10.6 10.6 5.85 0 10.6-4.72 10.6-10.6 0-5.84-4.75-10.6-10.6-10.6zm42 0c-5.84 0-10.6 4.75-10.6 10.6 0 5.84 4.75 10.6 10.6 10.6 5.84 0 10.6-4.72 10.6-10.6 0-5.84-4.72-10.6-10.6-10.6zm43 0c-5.84 0-10.6 4.75-10.6 10.6 0 5.84 4.72 10.6 10.6 10.6 5.84 0 10.6-4.72 10.6-10.6 0-5.84-4.75-10.6-10.6-10.6zm43 0c-5.85 0-10.6 4.75-10.6 10.6 0 5.84 4.73 10.6 10.6 10.6 5.85 0 10.6-4.72 10.6-10.6 0-5.84-4.75-10.6-10.6-10.6zm42 0c-5.84 0-10.6 4.75-10.6 10.6 0 5.84 4.75 10.6 10.6 10.6 5.84 0 10.6-4.72 10.6-10.6 0-5.84-4.72-10.6-10.6-10.6zm43 0c-5.84 0-10.6 4.75-10.6 10.6 0 5.84 4.72 10.6 10.6 10.6 5.84 0 10.6-4.72 10.6-10.6 0-5.84-4.75-10.6-10.6-10.6z"
     fill="#ffce54"
     id="path1" />
  <rect
     x="22.3"
     y="32.9"
     width="467"
     height="446"
     fill="#014c52"
     id="rect1" />
  <path
     d="m23.8 424-7.57 7.97v52.8h51.7l8.97-7.97zm190 19.1c-5.84 0-10.6 4.75-10.6 10.6 0 5.84 4.73 10.6 10.6 10.6 5.85 0 10.6-4.72 10.6-10.6s-4.73-10.6-10.6-10.6zm43 0c-5.85 0-10.6 4.75-10.6 10.6 0 5.84 4.75 10.6 10.6 10.6s10.6-4.72 10.6-10.6-4.75-10.6-10.6-10.6zm42 0c-5.84 0-10.6 4.75-10.6 10.6 0 5.84 4.75 10.6 10.6 10.6 5.84 0 10.6-4.72 10.6-10.6s-4.72-10.6-10.6-10.6z"
     fill="#eddc6e"
     id="path2" />
  <path
     d="m11.6 22.2v467h489v-467zm16 15h458v68.2c-7.53 0-12.8 5.48-12.8 12.6s5.02 12.8 12.8 12.6v344h-458v-344c8.18-0.572 12.6-5.53 12.6-12.7s-4.2-11.9-12.6-12.5z"
     fill="#049faa"
     id="path3" />
  <path
     d="m447 171v-85c0-11.7-9.52-21.3-21.3-21.3h-340c-11.7 0-21.3 9.52-21.3 21.3v85l-10.6 21.3v128l10.6 21.3v85c0 11.7 9.51 21.3 21.3 21.3h89.8l21.2-10.6h119l21.3 10.6h89.3c11.7 0 21.3-9.52 21.3-21.3v-85l10.6-21.3v-128z"
     fill="#c4cad4"
     id="path4" />
  <rect
     x="107"
     y="107"
     width="298"
     height="298"
     fill="#e6e9ed"
     id="rect4" />
</svg>
