<?xml version="1.0" encoding="UTF-8"?>
<svg width="512" height="512" version="1.1" viewBox="0 0 512 512" xmlns="http://www.w3.org/2000/svg">
 <defs>
  <linearGradient id="c" x1="198" x2="432" y1="244" y2="244" gradientUnits="userSpaceOnUse">
   <stop style="stop-color:#fff;stop-opacity:.18" offset="0"/>
   <stop style="stop-color:#fff;stop-opacity:0" offset=".464"/>
   <stop style="stop-color:#fff;stop-opacity:0" offset=".59"/>
   <stop style="stop-color:#fff;stop-opacity:.18" offset="1"/>
  </linearGradient>
  <linearGradient id="a" x1="210" x2="421" y1="380" y2="380" gradientUnits="userSpaceOnUse">
   <stop style="stop-color:#00f;stop-opacity:0" offset="0"/>
   <stop style="stop-color:#00f" offset=".16"/>
   <stop style="stop-color:#00f" offset=".81"/>
   <stop style="stop-color:#00f;stop-opacity:0" offset="1"/>
  </linearGradient>
  <linearGradient id="e" x1="118" x2="242" y1="256" y2="256" gradientUnits="userSpaceOnUse">
   <stop offset="0"/>
   <stop style="stop-color:#454545" offset="1"/>
  </linearGradient>
  <radialGradient id="d" cx="222" cy="264" r="45.5" gradientTransform="matrix(2.87,0,3.95e-6,7.88,-453,-1810)" gradientUnits="userSpaceOnUse">
   <stop style="stop-color:#0000fd" offset="0"/>
   <stop style="stop-color:#0303ea;stop-opacity:0" offset="1"/>
  </radialGradient>
  <radialGradient id="b" cx="224" cy="180" r="27.5" gradientTransform="matrix(2.49,0,0,3.25,-366,-405)" gradientUnits="userSpaceOnUse">
   <stop style="stop-color:#4d4dff" offset="0"/>
   <stop style="stop-color:#4d4dff;stop-opacity:0" offset="1"/>
  </radialGradient>
  <linearGradient id="g" x1="125" x2="90.2" y1="438" y2="403" gradientTransform="matrix(1.12 0 0 1.12 -24.4 -53)" gradientUnits="userSpaceOnUse">
   <stop style="stop-color:#e80" offset="0"/>
   <stop style="stop-color:#fc6" offset="1"/>
  </linearGradient>
  <linearGradient id="f" x1="200" x2="417" y1="170" y2="170" gradientUnits="userSpaceOnUse">
   <stop style="stop-color:#fff" offset="0"/>
   <stop style="stop-color:#9bcbff;stop-opacity:.35" offset="1"/>
  </linearGradient>
 </defs>
 <path d="m79.8 85.2 122-82.7 1.32 508-124-43.4z" fill="url(#e)"/>
 <path d="m207 511c-4.54 2e-5 -8.26-3.71-8.26-8.26v-494c0-4.54 3.71-8.26 8.26-8.26h215c7.11 0 10.3 3.27 10.3 10.3v61.2l23.7 28.1-0.451 139-23.2 33.3v228c-0.0636 7.14-3.82 10.6-10.3 10.6z"/>
 <path d="m210 1.05v155c0 12.1 9.91 22 22 22h184c12.1 0 22-9.91 22-22l-0.125-80.2-17.9-16.9v-57.9z" fill="#333"/>
 <rect x="210" y="79.1" width="228" height="5.5"/>
 <rect x="210" y="11.6" width="210" height="5.5"/>
 <rect x="279" y="132" width="23" height="6.1" fill="#5b5c5f"/>
 <rect x="248" y="132" width="23" height="6.1" fill="#db2b42"/>
 <rect x="374" y="132" width="23" height="6.1" fill="#db2b42"/>
 <rect x="342" y="132" width="23" height="6.1" fill="#5b5c5f"/>
 <rect x="311" y="132" width="23" height="6.1" fill="#db2b42"/>
 <circle cx="413" cy="222" r="30.6" fill="#5b5c5f"/>
 <circle cx="413" cy="222" r="21.8"/>
 <circle cx="413" cy="222" r="9.26" fill="#db2b42"/>
 <path d="m290 444h57.7v21.1h-57.7z" fill="#999"/>
 <path d="m398 147h-149l-21 30.3c1.38 0.202 2.78 0.349 4.23 0.349h182c1.45 0 2.85-0.147 4.23-0.349z" fill="#5b5c5f"/>
 <circle cx="340" cy="164" r="4.7"/>
 <circle cx="355" cy="164" r="4.7"/>
 <circle cx="372" cy="164" r="4.7"/>
 <circle cx="388" cy="164" r="4.7"/>
 <rect x="253" y="159" width="29.3" height="9.35"/>
 <rect x="295" y="159" width="29.3" height="9.35"/>
 <path d="m422 511-215-0.0216c-4.54-4.6e-4 -8.26-3.71-8.26-8.26v-494c0-4.54 3.71-8.26 8.26-8.26h217c4.54 0 8.26 3.71 8.26 8.26v61.8l23.3 26.4v146l-23.3 27.5v233c0 3.13-2.17 7.32-10.1 7.74z" fill="url(#c)"/>
 <path d="m210 255v248l36-9.83v-228zm211 42-32 9.83v186l32 9.83z" fill="url(#a)"/>
 <path d="m91.7 101 91-52.6v426l-91-25.2z" fill="url(#d)"/>
 <path d="m183 105c-73.4 21.1-73.4 128 0 149z" fill="url(#b)"/>
 <path d="m316 461v-5.93h-4.62v5.93h-2.56v-13.6h2.56v5.47h4.62v-5.47h2.56v13.6zm4.62 0v-1.88c2.01-2.44 6.28-5.01 6.28-7.8 0-1.88-2.53-2.97-5-0.63l-1.34-1.73c0.876-0.814 2.36-1.81 4.4-1.81 2.77 0 4.49 1.51 4.42 3.99-0.114 3.73-3.06 5.46-5.25 7.51h5.74v2.34z"/>
 <path d="m171.6 147.6c-4.045 62.82 9.994 98.23 43.88 136.6l-41.66 41.2 17.69 17.74 42.36-42.14c12.76 10.28 24.96 17.45 42.36 23.62 74.76 26.45 154.3 2.832 198.7-62.51 72.7-107 6.6-254.8-132.1-257.7-136.2-2.968-169.1 110-171.3 143.2zm164.6-113.5c62.71-0.7959 133.1 46.6 135.2 122.2h0.1655c6.019 66.68-42.14 135-107.4 145-58.12 10.9-124.8-17.78-149.1-75.49-41.44-92.3 24.3-190.6 121-191.7z"/>
 <path d="m160.2 300.4c15.18 0.0233 22.5 4.465 28.25 10.26 6.159 5.834 12.13 11.86 18.01 17.99 5.696 6.622 8.383 15.72 7.733 24.54-0.5441 7.781-3.705 15.47-9.169 20.95-20.64 20.36-96.03 93.79-127.6 125.3-5.046 5.325-11.46 9.447-18.57 11.02-9.656 2.174-20.26-0.1396-28.01-6.462-5.593-4.695-17.98-17.43-20.98-20.51-6.622-7.41-9.68-18.04-8.058-28.01 1.183-7.687 5.092-14.82 10.7-20.01 76.63-76.63 3.04-2.957 125-123.2 9.182-9.871 16.68-11.78 22.65-11.87z" fill="#4d2000"/>
 <path d="m158 326.1c3.681-3.611 9.447-3.611 13.13-7e-3l16.39 16.32c3.611 3.521 3.611 9.447 0 12.99l-128.7 126.7c-3.681 3.567-9.423 3.567-13.08 0l-16.39-16.28c-3.611-3.521-3.611-9.447 0-12.99z" fill="url(#g)"/>
 <path d="m336.6 28.89c77.57 0 141 62.97 141 139.9s-63.46 139.9-141 139.9-141-62.97-141-139.9 63.46-139.9 141-139.9zm0 10.6c-72.7 0.04171-130.6 56.96-130.6 129.4 0 72.02 57.88 129.4 130.6 129.4s130.6-57.42 130.6-129.4c0-72.02-57.88-129.4-130.6-129.4z" fill="#a4d1ff"/>
 <path d="m205 169c0 72.1 59.6 130 132 130 72.9 0 131-56.5 131-129 0-72.2-59.4-131-132-131-72.8 0-131 58.2-131 130z" fill="url(#f)"/>
 <path d="m206 166.7c0 16.62 2.117 34.04 10.45 52.79 4.855-1.659 16.05-4.26 19.95-7.575 64.42-43.79 62.8-122.2 190.7-137.1-25.7-23.95-58.58-35.98-89.64-35.52-80.36 0-132.2 66.46-131.5 127.4z" fill="#fff" opacity=".5"/>
</svg>
