<?xml version="1.0" encoding="UTF-8"?>
<svg width="512" height="512" version="1.1" viewBox="0 0 512 512" xmlns="http://www.w3.org/2000/svg">
 <defs>
  <linearGradient id="a" x1="4120" x2="4127" y1="96.48" y2="104.1" gradientTransform="matrix(-1.841,0,0,1.896,7997,260.4)" gradientUnits="userSpaceOnUse">
   <stop style="stop-color:#e80" offset="0"/>
   <stop style="stop-color:#fc6" offset="1"/>
  </linearGradient>
  <linearGradient id="b" x1="4146" x2="4211" y1="45" y2="45" gradientTransform="matrix(-1.841,0,0,1.896,7997,260.4)" gradientUnits="userSpaceOnUse">
   <stop style="stop-color:#fff;stop-opacity:.5" offset="0"/>
   <stop style="stop-color:#9bcbff;stop-opacity:.7" offset="1"/>
  </linearGradient>
  <radialGradient id="c" cx="178" cy="345" r="184.8" gradientTransform="matrix(1.402 -1.806 1.214 .7042 -478 429.3)" gradientUnits="userSpaceOnUse">
   <stop style="stop-color:#fff" offset="0"/>
   <stop style="stop-color:#225b9a;stop-opacity:.7" offset="1"/>
  </radialGradient>
 </defs>
 <path d="m420.7 0.9766h-235.4c-42.1 0.0013-49.67 0.7347-96.14 40.92-46.9 40.56-46.82 45.9-46.82 82.11v330.8c0 27.7 14.02 56.12 47.52 56.12h330.8c35.96 0 48.97-26.92 48.97-56.12v-398.8c0-29.69-15.18-55.03-48.97-55.03z" fill="url(#c)"/>
 <g>
  <path d="m250.9 300.5-11.66 26.36 44.73-0.1862c22.4 0 22.38-26.31-0.1117-26.31z"/>
  <path d="m238.4 358.4 9.489 26.36 58.9-0.1862c22.4 0 22.38-26.31-0.1118-26.31z"/>
  <path d="m252.1 390.7 22.91 19.25-158.7-0.136c-15.25 0-15.8-19.22 0.1271-19.22z"/>
  <path d="m234 349 6.584 19.25-126.4-0.136c-13.84 0-14.64-19.22 0.4641-19.22z"/>
  <path d="m246.5 307.3-8.54 19.25-122.8-0.136c-16.36 0-16.35-19.22 0.0816-19.22z"/>
 </g>
 <g>
  <path d="m380.6 335.6c1.843 28.62-4.553 44.75-19.99 62.24l18.98 18.77-8.059 8.08-19.3-19.2c-5.812 4.684-11.37 7.95-19.3 10.76-34.06 12.05-70.28 1.29-90.51-28.48-33.12-48.74-3.007-116.1 60.16-117.4 62.07-1.352 77.05 50.11 78.02 65.24zm-74.98-51.69c-28.57-0.3626-60.62 21.23-61.61 55.67h-0.0754c-2.742 30.38 19.2 61.5 48.95 66.04 26.48 4.968 56.86-8.102 67.94-34.39 18.88-42.05-11.07-86.82-55.13-87.34z" fill="#1a2833"/>
  <path d="m379.4 399.7c-6.916 0.0106-10.25 2.034-12.87 4.674-2.806 2.658-5.528 5.401-8.207 8.197-2.595 3.017-3.819 7.162-3.523 11.18 0.2479 3.545 1.688 7.047 4.177 9.546 9.403 9.276 43.75 42.73 58.12 57.07 2.299 2.426 5.222 4.304 8.46 5.021 4.399 0.9906 9.23-0.0636 12.76-2.944 2.548-2.139 8.192-7.939 9.557-9.346 3.017-3.376 4.41-8.217 3.671-12.76-0.539-3.502-2.32-6.751-4.874-9.114-34.91-34.91-1.385-1.347-56.96-56.12-4.183-4.497-7.601-5.365-10.32-5.41z" fill="#4d2000"/>
  <path d="m380.4 411.4c-1.677-1.645-4.304-1.645-5.982-3e-3l-7.469 7.437c-1.645 1.604-1.645 4.304 0 5.918l58.65 57.71c1.677 1.625 4.293 1.625 5.96 0l7.469-7.416c1.645-1.604 1.645-4.304 0-5.918z" fill="url(#a)"/>
  <path d="m305.4 281.5c-35.34 0-64.25 28.69-64.25 63.72s28.91 63.72 64.25 63.72 64.25-28.69 64.25-63.72-28.91-63.72-64.25-63.72zm0 4.831c33.12 0.019 59.5 25.95 59.5 58.97 0 32.81-26.37 58.97-59.5 58.97s-59.5-26.16-59.5-58.97 26.37-58.97 59.5-58.97z" fill="#a4d1ff"/>
  <path d="m365.1 345.4c0 32.81-27.09 58.95-60.21 58.95s-59.54-25.72-59.54-58.52 27.01-59.71 60.13-59.71 59.62 26.48 59.62 59.29z" fill="url(#b)"/>
  <path d="m364.9 344.3c0 7.574-0.9646 15.51-4.759 24.05-2.212-0.756-7.312-1.941-9.087-3.451-29.35-19.95-28.61-55.65-86.89-62.44 11.71-10.91 26.69-16.39 40.84-16.18 36.61 0 60.25 30.28 59.89 58.02z" fill="#fff" opacity=".5"/>
 </g>
 <g>
  <path d="m395.8 136.6c12.07 19.46 19.35 49.97 18.44 66.93h-53.39c-1.086-20.15-5.851-31.42-11.84-43.94z" style="fill:#fd4755;stroke-width:4;stroke:#de0214"/>
  <path d="m341.2 73.98c21.97 12.63 38.25 33.12 46.78 48.04l-43.14 29.37c-11.03-15.25-15.82-19.58-30.73-31.76z" style="fill:#fa6d9e;stroke-width:4;stroke:#f7286d"/>
  <path d="m262.6 48.25c18.33-1.241 49.86 6.363 64.88 17.76l-22.99 49.06c-17.87-8.116-23.68-9.368-42-11.61z" style="fill:#ffb945;stroke-width:4;stroke:#df8b00"/>
  <path d="m250.2 103.6c-9.914 1.73-26.75 3.836-41.66 11.61l-24.47-48.83c15.03-10.57 44.96-18.9 64.43-17.53z" style="fill:#fde27a;stroke-width:4;stroke:#d8aa02"/>
  <path d="m200 119.5c-14.34 7.979-24.7 20.15-32.1 31.76l-44.85-28.12c11.2-20.26 28-36.31 46.78-49.52z" style="fill:#6af7c7;stroke-width:4;stroke:#05c682"/>
  <path d="m97.67 204.9c-0.5487-20.38 7.49-50.2 18.21-67.96 0 0 34.49 16.39 47.01 23.79 0 0-11.11 19.46-11.28 44.17z" style="fill:#88c7fe;stroke-width:4;stroke:#34a5fe"/>
  <path d="m359.4 115-120.7 86.4c-14.57 10.75-17.3 29.94-4.189 44.05 13.11 14.11 35.06 9.801 45.87-6.511zm-91.06 106.1c1.844 6.921-2.242 14-9.14 15.94-6.875 1.855-13.89-2.254-15.82-9.197-1.844-6.921 2.242-14 9.14-15.94 6.363-1.707 13.89 1.776 15.82 9.197z" style="fill:#1a2833;stroke-width:4;stroke:#000"/>
 </g>
</svg>
