<?xml version="1.0" encoding="UTF-8"?>
<svg width="512" height="512" version="1.1" viewBox="0 0 512 512" xmlns="http://www.w3.org/2000/svg">
 <defs>
  <linearGradient id="a" x1="4120" x2="4127" y1="96.48" y2="104.1" gradientTransform="matrix(-1.745 0 0 1.798 7647 286)" gradientUnits="userSpaceOnUse">
   <stop style="stop-color:#e80" offset="0"/>
   <stop style="stop-color:#fc6" offset="1"/>
  </linearGradient>
  <linearGradient id="b" x1="4146" x2="4211" y1="45" y2="45" gradientTransform="matrix(-1.745 0 0 1.798 7647 286)" gradientUnits="userSpaceOnUse">
   <stop style="stop-color:#fff" offset="0"/>
   <stop style="stop-color:#9bcbff;stop-opacity:.68" offset="1"/>
  </linearGradient>
 </defs>
 <g>
  <path d="m158 9.11 262-1.61-0.0355 448-324 0.0654-0.625-384z" fill="#fcf2d6"/>
  <path d="m154.7 1.265-69.61 69.03v377c0 9.6 4.34 15.7 15.6 15.7h214c9.12 0 10.54-15.39-0.617-15.5l-213-0.241-0.254-358h57.2c8.64 0 16.65-4.72 16.6-15.2l-0.3-57.8h236l0.506 275c0.0223 12.1 16 11 16 0.801l0.0404-276c1e-3 -8.94-6.25-14.8-15.8-14.8l-256.4 0.00517zm4.047 17.53 0.203 55.4-56.2-0.164z" fill="#3c65fc"/>
 </g>
 <g>
  <path d="m250 359c10.27 0 9.533 15.01-0.05 15.01l-116-0.106c-11.37 0-10.62-14.99 0.59-14.98z"/>
  <path d="m257 326c9.795 0 10.56 15.01-0.665 15.01l-123-0.106c-10.01 0-10.24-14.99 0.62-14.98z"/>
  <path d="m280.3 294c10.88 0 10.7 15.01-0.06 15.01l-146-0.106c-10.87-0.1226-11.17-14.99 0.75-14.98z"/>
 </g>
 <g>
  <path d="m427.3 357.3c1.747 27.13-4.316 42.42-18.95 59l18 17.8-7.64 7.66-18.3-18.2c-5.51 4.44-10.78 7.536-18.3 10.2-32.29 11.43-66.62 1.223-85.8-27-31.4-46.2-2.851-110 57.03-111.3 58.84-1.281 73.04 47.5 73.96 61.85zm-71.08-49c-27.08-0.3438-57.47 20.13-58.4 52.77h-0.0715c-2.6 28.8 18.2 58.3 46.4 62.6 25.1 4.71 53.9-7.68 64.4-32.6 17.9-39.86-10.49-82.31-52.26-82.8z" fill="#4d4d4d"/>
  <path d="m428 420c-6.557 0.01-9.718 1.928-12.2 4.43-2.66 2.52-5.24 5.12-7.78 7.77-2.46 2.86-3.62 6.79-3.34 10.6 0.235 3.36 1.6 6.68 3.96 9.05 8.914 8.793 41.47 40.51 55.1 54.1 2.18 2.3 4.95 4.08 8.02 4.76 4.17 0.939 8.75-0.0603 12.1-2.79 2.416-2.028 7.765-7.526 9.06-8.86 2.86-3.2 4.18-7.79 3.48-12.1-0.511-3.32-2.2-6.4-4.62-8.64-33.09-33.09-1.313-1.277-54-53.2-3.965-4.263-7.206-5.086-9.78-5.129z" fill="#803300"/>
  <path d="m429 431c-1.59-1.56-4.08-1.56-5.67-3e-3l-7.08 7.05c-1.56 1.52-1.56 4.08 0 5.61l55.6 54.7c1.59 1.54 4.07 1.54 5.65 0l7.08-7.03c1.56-1.52 1.56-4.08 0-5.61z" fill="url(#a)"/>
  <path d="m356 306c-33.5 0-60.9 27.2-60.9 60.4s27.4 60.4 60.9 60.4 60.9-27.2 60.9-60.4-27.4-60.4-60.9-60.4zm0 4.58c31.4 0.018 56.4 24.6 56.4 55.9 0 31.1-25 55.9-56.4 55.9s-56.4-24.8-56.4-55.9 25-55.9 56.4-55.9z" fill="#a4d1ff"/>
  <path d="m413 367c0 31.1-25.6 56.6-57 56.6s-57-25.5-57-56.6 25.6-56.6 57-56.6 57 25.5 57 56.6z" fill="url(#b)"/>
  <path d="m410 366c0 7.91-1.74 15.4-4.85 22.3-2.08-0.701-4.02-1.8-5.69-3.2-27.6-18.5-26.9-51.6-81.7-57.9 11.8-10 25.1-15.2 38.4-15 30 0 53.7 24.1 53.7 53.9z" fill="#fff"/>
 </g>
 <g>
  <path d="m379 160c10.6 17.1 17 43.9 16.2 58.8h-46.9c-0.954-17.7-5.14-27.6-10.4-38.6z" style="fill:#fd4755;stroke-width:2;stroke:#fd071c"/>
  <path d="m331 105c19.3 11.1 33.6 29.1 41.1 42.2l-37.9 25.8c-9.69-13.4-13.9-17.2-27-27.9z" style="fill:#fb6871;stroke-width:2;stroke:#fb3742"/>
  <path d="m262 82.4c16.1-1.09 43.8 5.59 57 15.6l-20.2 43.1c-15.7-7.13-20.8-8.23-36.9-10.2z" style="fill:#ffb945;stroke-width:2;stroke:#fa9b00"/>
  <path d="m251 131c-8.71 1.52-23.5 3.37-36.6 10.2l-21.5-42.9c13.2-9.29 39.5-16.6 56.6-15.4z" style="fill:#fde27a;stroke-width:2;stroke:#fdd330"/>
  <path d="m207 145c-12.6 7.01-21.7 17.7-28.2 27.9l-39.4-24.7c9.84-17.8 24.6-31.9 41.1-43.5z" style="fill:#6af7c7;stroke-width:2;stroke:#1cf7a9"/>
  <path d="m117 220c-0.482-17.9 6.58-44.1 16-59.7 0 0 30.3 14.4 41.3 20.9 0 0-9.76 17.1-9.91 38.8z" style="fill:#88c7fe;stroke-width:2;stroke:#39a6fe"/>
  <path d="m347 141-106 75.9c-12.8 9.44-15.2 26.3-3.68 38.7s30.8 8.61 40.3-5.72zm-80 93.2c1.62 6.08-1.97 12.3-8.03 14-6.04 1.63-12.2-1.98-13.9-8.08-1.62-6.08 1.97-12.3 8.03-14 5.59-1.5 12.2 1.56 13.9 8.08z" style="fill:#364f63;stroke-width:2;stroke:#000"/>
 </g>
</svg>
