<?xml version="1.0" encoding="UTF-8"?>
<svg width="512" height="512" version="1.1" viewBox="0 0 512 512" xmlns="http://www.w3.org/2000/svg">
 <circle cx="256" cy="256" r="254" fill="#54c0eb"/>
 <path d="m306 305c30.5-17.3 51-50.1 51-87.6 0-55.7-45.1-101-101-101s-101 45.1-101 101c0 37.6 20.6 70.3 51 87.6-63.2 16.1-114 61.8-138 122 46.5 51.1 114 83.2 188 83.2s142-32.1 188-83.2c-23.7-59.8-75-106-138-122z" fill="#fff"/>
 <path d="m404 184h-15.8c-14.9-58.9-68.3-103-132-103s-117 43.7-132 103h-15.8c-5.4 0-9.8 4.4-9.8 9.8v47.9c0 5.4 4.4 9.8 9.8 9.8h20c6.1 0 10.8-5.5 9.7-11.4-2-10.4-2.7-21.3-1.8-32.5 4.8-59.3 53.6-107 113-110 69.2-3.8 127 51.5 127 120 0 7.8-0.8 15.3-2.2 22.7-1.17 7.38 4.79 11.5 11.4 11.5-4.2 13-14.9 37.2-38.3 50.2-19.6 10.9-44.3 11.9-73.4 2.8-1.5-6.7-8.9-14.6-16.5-18.3-9.8-4.9-15.9-0.8-19.4 6.2s-3 14.3 6.7 19.2c8.6 4.3 21.6 5.2 27 0.5 27 8.35 55.3 10.1 79.4-3.5 27.5-15.3 38.8-43.7 42.8-57.2 8.17 0.287 18.8 0.991 19.7-9.8v-47.9c0-5.4-4.4-9.8-9.8-9.8z" fill="#324a5e"/>
</svg>
