<?xml version="1.0" encoding="UTF-8"?>
<svg width="512" height="512" version="1.1" viewBox="0 0 512 512" xmlns="http://www.w3.org/2000/svg">
 <path d="m34.3 502c22.8-11.8 55.6-35 99.1-70.8l-51.4-51c-35.4 43-58.6 75.9-70.4 99.1 12.6 0.382 22.3 10.5 22.7 22.7z" fill="#bdbdbd"/>
 <path d="m4.74 509c3.36 3.36 11 2.12 22.4-3.36 2.12-0.85 4.63-2.12 6.76-3.36a23.5 23.5 0 0 0-22.8-22.8c-1.28 2.55-2.55 4.63-3.36 6.76-5.06 11.4-5.91 19.4-2.98 22.7z" fill="#616161"/>
 <path d="m34.6 466c-0.68 0.595-1.4 1.19-2.12 1.83-1.32 1.1-2.89 2.3-4.59 1.87 0.765-3.1 2.42-5.91 4.04-8.67 11.8-20 20.4-35.2 37.5-51.3 1.15-1.06 2.42-2.17 3.95-2.42 2.51-0.382 4.72 1.66 6.08 3.74 1.4 2.12 3.66 6.16 3.27 8.84-0.382 2.85-3.53 4.55-5.65 6.46-15.5 14-26.6 25.9-42.5 39.6z" fill="#eee"/>
 <path d="m442 17.1c-4.29-3.78-11.9-10.7-11.9-10.7-4.29-3.78-9.9-5.65-15.8-5.31-5.86 0.382-11.2 2.93-14.9 7.1-17 16.6-34 33.2-50.9 49.7-23.1 22.6-79.2 77.6-82.9 82.2-3.74 4.72-1.23 7.35-0.808 7.82 5.61 6.16 15.7 7.01 23 3.02 7.31-4 11.9-11.9 13.3-20.2 0.892-5.36 1.23-8.03 5.18-11.5 1.44-1.28 82-76.5 94.3-90.5 2.04-2.34 8.16-7.22 14.9-2.08 1.06 0.808 24.4 20.4 24.4 20.4l14.8-16.8-0.0425-0.978c-0.085-1.15-0.085-1.15-12.7-12.2z" fill="#bdbdbd"/>
 <path d="m296 218-32.5-32.5c-132 134-179 186-190 200-2 2.59-1.78 6.25 0.552 8.58l46.2 44.5c2.34 2.34 5.99 2.55 8.58 0.552 14.8-11.4 66.3-56.2 200-189-0.425-0.468-32.9-32.9-32.9-32.9z" fill="#1565c0"/>
 <path d="m430 28.5c-2.64-4.08-9.05-9.86-13.5-11.9-5.06-2.25-8.8-0.0425-12 2.8-5.7 5.02-43.6 44.3-51.8 54.7-0.935 1.19-1.91 2.51-1.91 4 21.6-20.5 43.6-40.8 50.7-46.9 5.36-4.63 10.5-8.76 14.8-4.55 0.425 0.425 3.36 2.76 8.67 7.22z" fill="#757575"/>
 <path d="m507 56.2c5.23-7.52-2.12-24.1-13.9-35.4-11.8-11.4-27.9-19.3-35.4-13.9-7.48 5.4-99.5 69.6-206 181-2.93 3.36-2.93 8.42 0 11.4l63.2 63.2c2.93 2.93 8.03 3.36 11.4 0 111-107 175-199 180-206z" fill="#1565c0"/>
 <path d="m109 384c-4.72 3.7-18.7 10.3-7.95-6.5 2.55-3.95 11.2-14.6 14.8-18.9 14.1-16.7 94.6-98.1 109-113 11.6-12.2 21.9-15.2 25.3-6.72 2.3 5.86-2.46 12.7-27.3 39.1-20.7 21.9-89.4 86.9-114 106z" fill="#2196f3"/>
 <path d="m340 158s-14.9 18-25.8 8.88c-8.58-7.27 11.3-24.5 11.3-24.5 0.51-0.552 68.7-64.6 89-80.9 8.33-6.72 19-14.2 21.9-11.6 2.93 2.59-1.91 10.8-14.7 23.6-12.8 12.7-81.3 84.1-81.7 84.6z" fill="#2196f3"/>
 <path d="m291 122c-3.32 2.17-2 12.1-4.04 17.1-1.66 4.04-1.62 6.16 1.78 5.14 3.61-1.1 7.65-6.54 7.65-15-0.0425-4.12-1.96-9.56-5.4-7.27z" fill="#eee"/>
 <path d="m426 30.4-3.82 2.98c8.92 5.48 20.2 13.9 31.8 25.5 5.14 5.14 12.2 13.4 14.7 18.3 2.3 4.72 3.14 11.9 1.19 18.7-2.12 7.35-5.48 10.7-6.84 18.2 6.76-8.37 20.4-25.8 20.4-25.8s-5.91-15.2-26.1-35.4c-20.2-20.2-31.3-22.4-31.3-22.4z" fill="#0d47a1"/>
 <path d="m493.3 20.8c-9.138-8.798-20.83-15.51-29.11-15.64 0 0 14.92 7.99 23.5 19.17 9.095 11.82 15 22.57 10.92 29.33-6.8 9.775-67.07 95.33-173.3 198.3a4.097 4.097 0 0 1-6.29-0.68c-6.035-9.308-14.11-19.13-26.18-31.15-17.26-17.26-28.39-25.03-41.35-31.58 0 0-2.975 1.573-3.74 6.8-0.51 3.358-0.2125 6.078-0.2125 6.078l3.655-3.358c10.16 5.695 22.53 14.88 35.7 28.09 5.653 5.653 10.75 11.35 15.17 16.83 0.595 1.105 5.015 10.46-4.038 24.95 0 0-1.36 1.743-3.4 4.463-106.4 104.3-155.9 148.8-165.6 155.5-10.2 6.928-15.6 4.59-15.6 4.59 1.275 1.275 4.08 4.42 7.225 6.885 3.188 2.508 6.63 0.8075 7.778-0.1275 12.33-9.563 50.32-42.37 140.6-130 0.1275-0.1275 0.255-0.2125 0.34-0.34 13.26-12.88 27.67-26.95 43.27-42.29 0.085 0 2.763 0.2975 6.078-0.2125 5.185-0.765 7.14-3.188 7.14-3.188v-0.0425c0.2975-0.2125 0.595-0.4675 0.8925-0.7225 110.9-106.7 175.3-198.7 180.5-206.2 5.228-7.523-2.083-24.06-13.9-35.45z" fill="#0d47a1"/>
 <path d="m312 202c-13-13-28.2-25-41.8-31.9 0 0-3.36-0.212-6.5 3.27-2.38 2.64-2.93 6.38-2.93 6.38 10.3 4.55 25.3 14.3 42.3 31.2 12.8 12.8 23.1 26.2 29.2 37.9 1.23 2.38 2.17 4.46 2.89 6.38 0 0 3.74 0.0425 6.88-2.68 3.53-3.1 2.8-6.84 2.8-6.84-6.72-14.1-19.2-30-32.8-43.7z" fill="#ffc107"/>
 <path d="m473 39.7c-8.8-8.8-18.6-17-28.1-23.6 0 0-6.54-2.51-12.5 3.02-5.99 5.52-6.46 11.4-6.46 11.4 8.92 5.48 19.6 13.6 31.2 25.2 10.8 10.8 19.9 22.2 26.2 32.6 0 0 6.63-0.51 11.3-6.08 4.68-5.57 3.02-13 3.02-13-6.72-10.1-15.3-20.3-24.6-29.5z" fill="#bdbdbd"/>
 <path d="m440 21.3c-2.25 0.468-4.38 2.21-4.5 4.5-0.128 2.34 1.74 4.21 3.48 5.78 5.44 4.93 11.1 9.94 18.1 12.3 1.53 0.51 3.53 0.808 4.59-0.425 0.68-0.765 0.722-1.91 0.638-2.93-0.34-4.21-2.46-8.08-5.23-11.3-4.34-4.93-10-9.39-17-7.95z" fill="#eee"/>
</svg>
