<?xml version="1.0" encoding="iso-8859-1"?>
<!-- Uploaded to: SVG Repo, www.svgrepo.com, Generator: SVG Repo Mixer Tools -->
<svg version="1.1" id="Layer_1" xmlns="http://www.w3.org/2000/svg" xmlns:xlink="http://www.w3.org/1999/xlink" 
	 viewBox="0 0 512.001 512.001" xml:space="preserve">
<path style="fill:#2196F3;" d="M322.194,436.518H117.521c-14.042,0-25.426-11.384-25.426-25.426V36.072
	c0-14.042,11.384-25.426,25.426-25.426h204.673c14.042,0,25.426,11.384,25.426,25.426v375.022
	C347.618,425.135,336.236,436.518,322.194,436.518z"/>
<rect x="92.095" y="66.542" style="fill:#ECF0F1;" width="255.523" height="314.08"/>
<path style="fill:#FFE1C2;" d="M419.906,335.53c0-16.17-12.044-29.279-28.214-29.279l0,0c-16.17,0-28.214,13.108-28.214,29.279
	c0-16.17-12.044-29.279-28.214-29.279l0,0c-16.17,0-28.214,13.108-28.214,29.279c0-16.17-12.044-29.279-28.214-29.279l0,0
	c-16.17,0-28.214,13.108-28.214,29.279V195.207c0-16.17-12.044-29.279-28.214-29.279l0,0c-16.17,0-28.214,13.108-28.214,29.279
	V406.06c0,15.351,5.155,30.256,14.639,42.327l0,0c9.484,12.07,14.639,26.977,14.639,42.327v10.64h167.155v-10.64
	c0-15.351,5.155-30.256,14.639-42.327l0,0c9.484-12.07,14.639-26.977,14.639-42.327V335.53z"/>
<g>
	<path style="fill:#231F20;" d="M220.811,107.371c-48.433,0-87.836,39.403-87.836,87.836c0,5.88,4.767,10.647,10.647,10.647
		s10.647-4.767,10.647-10.647c0-36.691,29.851-66.542,66.542-66.542s66.542,29.851,66.542,66.542c0,5.88,4.767,10.647,10.647,10.647
		s10.647-4.767,10.647-10.647C308.647,146.773,269.244,107.371,220.811,107.371z"/>
	<path style="fill:#231F20;" d="M391.692,295.605c-11.217,0-21.183,4.646-28.214,12.211c-1.592-1.712-3.34-3.265-5.213-4.659V36.071
		C358.265,16.182,342.084,0,322.194,0H117.521c-19.89,0-36.072,16.182-36.072,36.071v375.022c0,19.89,16.182,36.072,36.072,36.072
		h77.552c1.636,2.698,3.429,5.306,5.388,7.799c7.973,10.149,12.364,22.845,12.364,35.75v10.64c0,5.88,4.767,10.647,10.647,10.647
		h167.155c5.88,0,10.647-4.767,10.647-10.647v-10.64c0-12.906,4.391-25.601,12.364-35.75c10.908-13.882,16.915-31.25,16.915-48.905
		v-70.53C430.553,313.142,413.484,295.605,391.692,295.605z M335.264,295.605c-11.217,0-21.183,4.646-28.214,12.211
		c-7.031-7.563-16.997-12.211-28.214-12.211c-6.36,0-12.318,1.494-17.567,4.167V195.207c0-22.388-17.07-39.925-38.861-39.925
		s-38.861,17.537-38.861,39.925v174.769h-80.805V77.189h234.229v218.459C336.405,295.625,335.838,295.605,335.264,295.605z
		 M117.521,21.294h204.673c8.149,0,14.778,6.63,14.778,14.778v19.824H102.742V36.071C102.742,27.923,109.372,21.294,117.521,21.294z
		 M117.521,425.872c-8.149,0-14.779-6.63-14.779-14.779V391.27h80.805v14.791c0,6.704,0.871,13.366,2.542,19.812H117.521z
		 M409.259,406.06c0,12.906-4.392,25.601-12.364,35.749c-1.855,2.36-3.556,4.829-5.122,7.376h-79.322
		c-5.88,0-10.647,4.767-10.647,10.647c0,5.88,4.767,10.647,10.647,10.647h70.19c-1.744,6.577-2.66,13.38-2.661,20.229H234.119
		c-0.001-17.652-6.008-35.017-16.915-48.899c-7.973-10.147-12.364-22.843-12.364-35.749V195.207
		c0-10.622,7.552-18.632,17.567-18.632c10.015,0,17.567,8.01,17.567,18.632V335.53c0,5.88,4.767,10.647,10.647,10.647
		s10.647-4.767,10.647-10.647c0-10.622,7.552-18.632,17.567-18.632c10.015,0,17.567,8.01,17.567,18.632
		c0,5.88,4.767,10.647,10.647,10.647c5.88,0,10.647-4.767,10.647-10.647c0-10.622,7.552-18.632,17.567-18.632
		c10.015,0,17.567,8.01,17.567,18.632c0,5.88,4.767,10.647,10.647,10.647c5.88,0,10.647-4.767,10.647-10.647
		c0-10.622,7.552-18.632,17.567-18.632s17.567,8.01,17.567,18.632V406.06z"/>
	<path style="fill:#231F20;" d="M272.525,449.184h-4.791c-5.88,0-10.647,4.767-10.647,10.647c0,5.88,4.767,10.647,10.647,10.647
		h4.791c5.88,0,10.647-4.767,10.647-10.647C283.172,453.95,278.406,449.184,272.525,449.184z"/>
</g>
</svg>