<?xml version="1.0" encoding="UTF-8"?>
<svg width="512" height="512" version="1.1" viewBox="0 0 512 512" xmlns="http://www.w3.org/2000/svg">
 <path d="m322 436h-204c-14 0-25.3-11.3-25.3-25.3v-374c0-14 11.3-25.3 25.3-25.3h204c14 0 25.3 11.3 25.3 25.3v374c-2e-3 14-11.3 25.3-25.3 25.3z" fill="#2196f3"/>
 <rect x="92.7" y="67.3" width="255" height="313" fill="#ecf0f1"/>
 <path d="m419 335c0-16.1-12-29.2-28.1-29.2-16.1 0-28.1 13.1-28.1 29.2 0-16.1-12-29.2-28.1-29.2-16.1 0-28.1 13.1-28.1 29.2 0-16.1-12-29.2-28.1-29.2-16.1 0-28.1 13.1-28.1 29.2v-140c0-16.1-12-29.2-28.1-29.2-16.1 0-28.1 13.1-28.1 29.2v210c0 15.3 5.13 30.1 14.6 42.2 9.45 12 14.6 26.9 14.6 42.2v10.6h167v-10.6c0-15.3 5.13-30.1 14.6-42.2 9.45-12 14.6-26.9 14.6-42.2v-70.3z" fill="#ffe1c2"/>
 <path d="m221 108c-48.2 0-87.5 39.2-87.5 87.5 0 5.86 4.75 10.6 10.6 10.6s10.6-4.75 10.6-10.6c0-36.5 29.7-66.3 66.3-66.3s66.3 29.7 66.3 66.3c0 5.86 4.75 10.6 10.6 10.6s10.6-4.75 10.6-10.6c0-48.2-39.2-87.5-87.5-87.5z" fill="#231f20"/>
 <path d="m391 295c-11.2 0-21.1 4.63-28.1 12.2-1.59-1.71-3.33-3.25-5.19-4.64v-266c0-19.8-16.1-35.9-35.9-35.9h-204c-19.8 0-35.9 16.1-35.9 35.9v374c0 19.8 16.1 35.9 35.9 35.9h77.2c1.63 2.69 3.42 5.29 5.37 7.77 7.94 10.1 12.3 22.8 12.3 35.6v10.6c0 5.86 4.75 10.6 10.6 10.6h167c5.86 0 10.6-4.75 10.6-10.6v-10.6c0-12.9 4.37-25.5 12.3-35.6 10.9-13.8 16.8-31.1 16.8-48.7v-70.3c0-22.3-17-39.8-38.7-39.8zm-56.2 0c-11.2 0-21.1 4.63-28.1 12.2-7-7.53-16.9-12.2-28.1-12.2-6.34 0-12.3 1.49-17.5 4.15v-104c0-22.3-17-39.8-38.7-39.8-21.7 0-38.7 17.5-38.7 39.8v174h-80.5v-292h233v218c-0.564-0.0229-1.13-0.0428-1.7-0.0428zm-217-273h204c8.12 0 14.7 6.6 14.7 14.7v19.7h-233v-19.7c0-8.12 6.6-14.7 14.7-14.7zm0 403c-8.12 0-14.7-6.6-14.7-14.7v-19.7h80.5v14.7c0 6.68 0.868 13.3 2.53 19.7h-68.3zm291-19.7c0 12.9-4.37 25.5-12.3 35.6-1.85 2.35-3.54 4.81-5.1 7.35h-79c-5.86 0-10.6 4.75-10.6 10.6s4.75 10.6 10.6 10.6h69.9c-1.74 6.55-2.65 13.3-2.65 20.1h-145c-1e-3 -17.6-5.98-34.9-16.8-48.7-7.94-10.1-12.3-22.8-12.3-35.6v-210c0-10.6 7.52-18.6 17.5-18.6s17.5 7.98 17.5 18.6v140c0 5.86 4.75 10.6 10.6 10.6s10.6-4.75 10.6-10.6c0-10.6 7.52-18.6 17.5-18.6s17.5 7.98 17.5 18.6c0 5.86 4.75 10.6 10.6 10.6s10.6-4.75 10.6-10.6c0-10.6 7.52-18.6 17.5-18.6s17.5 7.98 17.5 18.6c0 5.86 4.75 10.6 10.6 10.6s10.6-4.75 10.6-10.6c0-10.6 7.52-18.6 17.5-18.6s17.5 7.98 17.5 18.6v70.3z" fill="#231f20"/>
 <path d="m272 448h-4.77c-5.86 0-10.6 4.75-10.6 10.6s4.75 10.6 10.6 10.6h4.77c5.86 0 10.6-4.75 10.6-10.6 0-5.86-4.75-10.6-10.6-10.6z" fill="#231f20"/>
</svg>
