<?xml version="1.0" encoding="UTF-8"?>
<svg width="512" height="512" version="1.1" viewBox="0 0 512 512" xmlns="http://www.w3.org/2000/svg">
 <path d="m257.2 1 112.2 47.33 52.59 215 26.4 17.53 20.97 66.32-7.315 23.13-35.19-25.17-0.2327-13.73-17.42-11.39h-307.8l-15.5 10.36 0.5227 14.76-34.43 25.17-9.41-23.13 21.97-66.32 28.16-17.53 48.61-215z" fill="#231f20"/>
 <path d="m92.75 264.1 24.62-108.9 93.42-50.83h92.91l91.71 50.87 26.26 107.2-30.39 168-134.9 75.64-133.8-75.64z" fill="#404042"/>
 <path d="m169.3 80.97-51.74 72.12-1.013 4.705 79.49 83.03h122.5l77.62-83.03-1.14-4.705-52.98-72.12-84.75 13.95zm39.82 36.19c6.44-6.4e-4 11.66 5.219 11.66 11.66 6.4e-4 6.441-5.221 11.66-11.66 11.66-6.44-4.9e-4 -11.66-5.221-11.66-11.66 4.9e-4 -6.439 5.22-11.66 11.66-11.66zm95.79 0c6.44-6.4e-4 11.66 5.219 11.66 11.66 6.4e-4 6.441-5.221 11.66-11.66 11.66-6.44-4.8e-4 -11.66-5.221-11.66-11.66 4.9e-4 -6.439 5.22-11.66 11.66-11.66z" fill="#fff"/>
 <path d="m254.1 165.7-52.51 32.44 52.51 72.72 50.82-72.72zm56.66 247.1-52.2 71.55 27.1 26.59 50.2-0.1073 26.03-26.48zm-109.3 0.0182-52.2 71.55 27.1 26.59 50.2-0.1073 26.03-26.48z" fill="#ed1c22"/>
 <path d="m254.1 165.7-52.51 32.44 52.51 72.72zm-94.75 276.3-10.18 42.8h103.5l-10.74-42.8zm110 0-11.05 42.84h103.6l-9.867-42.84z" fill="#f78222"/>
</svg>
