<?xml version="1.0" encoding="UTF-8"?>
<svg width="512" height="512" version="1.1" viewBox="0 0 512 512" xmlns="http://www.w3.org/2000/svg">
 <path d="m256 1c-140.8 0-254.9 114.1-255 254.8h-0.01584v197.3h0.01584c0.06335 31.95 25.99 57.84 57.96 57.84h0.2834 196.8c140.8-0.07919 254.9-114.2 254.9-255 0-140.8-114.2-255-255-255z" fill="#51a2da"/>
 <path d="m307.7 105.9c-39.77 0-74.89 29.95-79.75 69.23-0.3273 3.288-0.4829 5.671-0.4989 8.652-0.1716 53.06 0.3432 109.5 0.0158 160.6 0 30.81-23.01 51.77-51.82 51.77-28.86 0-52.11-23.04-52.11-51.82 0.4829-31.58 25.69-51.59 55.18-52.46h0.2674l29.85-0.2511v-42.45l-29.87 0.2036c-53.66-0.4989-96.34 41.52-97.9 94.95 0 51.94 42.74 94.33 94.56 94.33 48.89 0 89.57-38.24 94.01-86.04 0.6425-16.27 0.3432-37.69 0.3432-37.69 0.0803-8.84-0.1716-5.643-0.0758-23.19l37.1-0.2511c28.73 0.2195 28.45-43.09-0.2834-42.49l-36.82 0.2478c0-21.78 0.3432-43.46 0-65.29 0.0475-18.86 17.96-35.51 37.79-35.51 19.84 0 40.81 9.917 40.81 35.56 0 3.664-0.0916 5.787-0.2954 7.144-2.215 11.89 5.922 23.23 17.89 24.94 11.97 1.696 22.95-6.924 24.13-18.96 0.6864-4.757 0.7183-8.935 0.7183-13.13 0-45.22-40.44-78.07-83.26-78.07z" fill="#fafafa"/>
</svg>
