<svg id="图层_1" data-name="图层 1" xmlns="http://www.w3.org/2000/svg" viewBox="0 0 126 46"><polygon points="24.51 42.08 30.61 42.17 30.64 39.65 30.64 39.65 30.67 39.67 30.67 39.63 35.29 35.87 32.31 33.7 28.47 38.35 24.51 42.08" fill="#0091da"/><polygon points="51.78 16.16 50.13 18.26 51.77 16.16 46.32 17.87 42.99 22.85 39.73 24.6 37.33 25.91 29.37 22.64 23.65 18.36 27.46 13.05 26.08 7.46 20.14 10.6 20.13 10.6 26.08 7.46 28.56 0.01 28.56 0 22.69 6.05 21.87 5.91 23.39 2.09 22.14 4.29 23.4 2.05 17.92 7.71 17.55 7.91 12.75 10.94 10.43 15.88 7.14 21.54 10.24 29.32 11.22 35.35 12.48 38.41 10.42 40.89 8.2 43.55 14.16 43.55 14.93 38.1 17.32 34.33 21.27 35.05 25.76 33.25 29.05 31.52 32.31 33.7 35.36 35.87 37.05 38.03 32.16 45.17 38.41 45.18 38.11 41.6 42.63 37.38 40.34 32.64 40.06 26.86 44.67 24.15 47.26 24.66 48.4 20.47 47.27 24.65 50.77 23.39 50.77 23.39 51.78 16.16" fill="#0091da"/><polygon points="21.03 24.7 18.68 18.14 12.55 22.93 16.54 23.49 21.03 24.7" fill="#b2def0"/><polygon points="30.67 39.67 30.67 39.63 30.64 39.65 30.67 39.67" fill="none"/><polygon points="29.45 27.58 29.64 27.66 29.65 27.53 29.45 27.58" fill="none" stroke="#231815" stroke-width="0.88"/><polygon points="29.64 27.66 35.61 30.18 37.33 25.91 29.45 27.58 29.64 27.66" fill="#009fe8"/><polygon points="20.01 29.66 29.45 27.58 21.03 24.7 20.01 29.66" fill="#b2def0"/><polygon points="12.55 22.93 13.73 31.1 16.54 23.49 12.55 22.93" fill="#009fe8"/><polygon points="16.54 23.49 13.73 31.1 21.03 24.7 16.54 23.49" fill="#0091da"/><polygon points="13.73 31.1 20.01 29.66 21.03 24.7 13.73 31.1" fill="#009fe8"/><polygon points="20.05 10.57 20.09 10.62 20.1 10.59 20.05 10.57" fill="none" stroke="#231815" stroke-width="0.88"/><polygon points="18.68 18.14 23.65 18.36 23.76 14.9 18.68 18.14" fill="#0062b0"/><polygon points="29.37 22.64 23.65 18.36 21.03 24.7 29.37 22.64" fill="#0091da"/><polygon points="20.11 10.53 20.05 10.57 20.1 10.59 20.11 10.53" fill="none" stroke="#231815" stroke-width="0.88"/><polygon points="21.03 24.7 23.65 18.36 18.68 18.14 21.03 24.7" fill="#009fe8"/><polygon points="30.61 42.17 30.64 39.65 30.64 39.65 28.47 38.35 30.61 42.17" fill="#0062b0"/><polygon points="24.51 42.08 30.61 42.17 28.47 38.35 24.51 42.08" fill="#004380"/><polygon points="28.47 38.35 30.64 39.65 30.67 39.63 32.31 33.7 28.47 38.35" fill="#004380"/><polygon points="38.11 41.6 42.63 37.38 37.05 38.03 38.11 41.6" fill="#0062b0"/><polygon points="32.16 45.17 38.41 45.18 38.11 41.6 34.17 42.56 38.26 44.9 34.17 42.56 38.11 41.6 37.05 38.03 32.16 45.17" fill="#004380"/><polygon points="30.67 39.63 35.29 35.87 32.31 33.7 30.67 39.63" fill="#0062b0"/><polygon points="42.63 37.38 40.34 32.64 37.05 38.03 42.63 37.38" fill="#004380"/><polygon points="8.2 43.55 14.16 43.55 10.42 40.89 8.2 43.55" fill="#004380"/><polygon points="28.56 0 22.69 6.05 25.64 4.89 28.56 0" fill="#0091da"/><polygon points="23.4 2.05 17.53 8.11 21.29 5.8 23.4 2.05" fill="#0091da"/><polygon points="35.36 35.87 37.05 38.03 40.34 32.64 32.31 33.7 35.36 35.87" fill="#0091da"/><polygon points="25.64 4.89 22.69 6.05 26.08 7.46 25.64 4.89" fill="#009fe8"/><polygon points="21.86 5.92 23.39 2.09 21.27 5.81 21.86 5.92" fill="#b2def0"/><polygon points="26.08 7.46 28.56 0.01 25.64 4.89 26.08 7.46" fill="#b2def0"/><polygon points="12.48 38.41 10.42 40.89 14.93 38.1 11.22 35.35 12.48 38.41" fill="#0091da"/><polygon points="12.65 17.09 12.55 22.93 18.68 18.14 12.65 17.09" fill="#009fe8"/><polygon points="14.16 43.55 14.93 38.1 10.42 40.89 14.16 43.55" fill="#0062b0"/><polygon points="40.34 32.64 40.06 26.86 35.61 30.18 40.34 32.64" fill="#0062b0"/><polygon points="32.31 33.7 40.34 32.64 35.61 30.18 32.31 33.7" fill="#009fe8"/><polygon points="35.61 30.18 40.06 26.86 37.33 25.91 35.61 30.18" fill="#0091da"/><polygon points="40.06 26.86 44.69 24.14 42.99 22.85 40.06 26.86" fill="#0091da"/><polygon points="29.05 31.52 32.31 33.7 35.61 30.18 29.05 31.52" fill="#0062b0"/><polygon points="39.73 24.6 37.33 25.91 40.06 26.86 42.99 22.85 39.73 24.6" fill="#009fe8"/><polygon points="25.76 33.25 29.05 31.52 20.01 29.66 25.76 33.25" fill="#004380"/><polygon points="29.45 27.58 29.05 31.52 35.61 30.18 29.45 27.58" fill="#0091da"/><polygon points="29.45 27.58 20.01 29.66 29.05 31.52 29.45 27.58 29.45 27.58" fill="#0062b0"/><polygon points="48.45 20.42 51.77 16.16 46.32 17.87 48.4 20.47 48.45 20.42" fill="#b2def0"/><polygon points="47.27 24.65 50.77 23.38 48.4 20.47 47.27 24.65" fill="#0091da"/><polygon points="48.4 20.47 44.65 24.15 47.26 24.66 48.4 20.47 48.4 20.47" fill="#0062b0"/><polygon points="42.99 22.85 44.7 24.16 46.32 17.87 42.99 22.85" fill="#009fe8"/><polygon points="48.4 20.47 48.4 20.47 50.77 23.39 51.78 16.16 48.4 20.47" fill="#009fe8"/><polygon points="46.32 17.87 44.65 24.15 48.4 20.47 46.32 17.87" fill="#0091da"/><polygon points="21.27 35.05 25.76 33.25 20.01 29.66 21.27 35.05" fill="#0091da"/><polygon points="18.68 18.14 12.75 10.94 12.65 17.09 18.68 18.14" fill="#0091da"/><polygon points="17.55 7.91 12.75 10.94 18.03 12.26 17.55 7.91" fill="#0091da"/><polygon points="18.03 12.26 12.75 10.94 18.68 18.14 18.03 12.26" fill="#009fe8"/><polygon points="12.65 17.09 12.75 10.94 10.43 15.88 12.61 17.08 12.65 17.09" fill="#009fe8"/><polygon points="18.68 18.14 20.09 10.62 20.05 10.57 17.55 7.91 18.03 12.26 18.68 18.14" fill="#0062b0"/><polygon points="20.09 10.62 21.29 5.8 17.55 7.91 20.05 10.57 20.09 10.62" fill="#009fe8"/><polygon points="10.43 15.88 7.14 21.54 12.61 17.08 10.43 15.88" fill="#0062b0"/><polygon points="12.65 17.09 12.61 17.08 7.14 21.54 12.55 22.93 12.65 17.09" fill="#0091da"/><polygon points="14.93 38.1 17.32 34.33 13.73 31.1 14.93 38.1" fill="#004380"/><polygon points="17.32 34.33 21.27 35.05 20.01 29.66 17.32 34.33" fill="#009fe8"/><polygon points="11.22 35.35 14.93 38.1 13.73 31.1 11.22 35.35" fill="#0062b0"/><polygon points="13.73 31.1 17.32 34.33 20.01 29.66 13.73 31.1" fill="#0062b0"/><polygon points="7.14 21.54 10.24 29.32 12.55 22.93 7.14 21.54" fill="#0062b0"/><polygon points="10.24 29.32 11.22 35.35 13.73 31.1 10.24 29.32" fill="#009fe8"/><polygon points="12.55 22.93 10.24 29.32 13.73 31.1 12.55 22.93" fill="#0091da"/><polygon points="37.33 25.91 29.37 22.64 29.45 27.58 37.33 25.91" fill="#b2def0"/><polygon points="29.45 27.58 29.45 27.58 29.37 22.64 21.03 24.7 29.45 27.58" fill="#009fe8"/><polygon points="20.09 10.62 18.68 18.14 23.76 14.9 20.09 10.62" fill="#0091da"/><polygon points="20.09 10.62 23.76 14.9 27.46 13.05 20.1 10.59 20.09 10.62" fill="#009fe8"/><polygon points="23.65 18.36 27.46 13.05 23.76 14.9 23.65 18.36" fill="#b2def0"/><polygon points="20.09 10.62 27.46 13.05 26.08 7.46 20.09 10.62 20.09 10.62" fill="#b2def0"/><polygon points="26.08 7.46 22.69 6.05 21.29 5.8 20.09 10.62 26.08 7.46" fill="#0091da"/><text transform="translate(39.97 45.18)" font-size="2.51" font-family="ArialMT, Arial">®</text><path d="M56.85,16.81H60V23l7.61-6.14h2.28l-5.07,4L71,28.66H67l-4.48-5.81-2.47,2v3.84H56.85Z"/><path d="M76.29,23.91l-5.43-7.1h3.65l4.38,5.61,4.51-5.61h1.65l-5.65,7.1v4.75H76.29Z"/><path d="M86.18,16.81h3.18V27.39h8.13v1.27H86.18Z"/><path d="M99.1,16.81h3.15V28.66H99.1Z"/><path d="M105,16.81h3.4l7.75,10.1V16.78h1.54V28.66h-4.06L106.5,18.39V28.66H105Z"/><polygon points="57.47 34.63 57.54 33.13 57.05 33.61 62.1 33.61 62.1 32.42 56.95 32.42 56.47 32.42 56.45 32.9 56.38 34.59 57.47 34.63"/><polygon points="71.63 44.85 67.63 40.22 67.3 39.85 66.93 40.17 63.85 42.52 63.85 38.95 70.94 38.95 70.94 32.42 62.72 32.42 62.72 33.61 69.75 33.61 69.75 35.17 62.69 35.17 62.69 36.36 69.75 36.36 69.75 37.86 62.66 37.86 62.66 45.01 63.48 44.29 67.18 41.52 69.95 44.85 71.63 44.85"/><rect x="89.09" y="32.36" width="6.21" height="1"/><path d="M111.36,32.36h-6.11v1h6.11Zm6,8.88V39.85h1.18V38.68h-1.18v-.9h-1v.9h-.8v-3.4l.18-.26h2.65V34h-1.91l1.78-1.61h-1.34l-1.36,1.25V32.27h-1v1.39l-1.35-1.25-1.45,0L113.54,34h-8.27V45h1.09V39.64h.69V45l.85-.87,2.56-2.47h0l.66-.64.86.73-3.22,3.18h1.42l4.34-4.29v1.68h1.82v2.56h1V42.31h1.47V41.24Zm-10.3-2.59h-.69V37.12h.69Zm0-2.53h-.69V35h.69Zm2.64,1h.67v1.53h-.67Zm-1,4.87-.66.63v-.95h.66Zm0-1.31H108v-1h.66Zm0-2H108V37.12h.66Zm0-2.53H108V35h.66Zm1.36,4.56h-.37v-1h1.43Zm2.65.36-.86-.72,1.56-1.5.76.78Zm1.84-2.47-1.13-1.15-.4.39-1.66,1.61v-3.3h-1.67V35h4.23l-2.48,2.3h1.45l1.66-1.53Zm1.8,2.67h-.82V39.85h.82Z"/><polygon points="62.03 36.37 62.03 35.18 56.45 35.18 56.45 36.37 57.37 36.37 57.37 37.84 56.51 37.84 56.51 38.93 57.37 38.93 57.37 44.81 61.89 44.81 61.89 43.83 58.56 43.83 58.56 38.93 61.98 38.93 61.98 37.84 58.56 37.84 58.56 36.37 62.03 36.37"/><polygon points="73.93 44.87 77.41 38.42 78.06 37.39 77 37.39 72.91 37.39 72.91 38.62 76.81 38.62 76.4 37.59 72.48 44.88 73.93 44.87"/><rect x="72.89" y="32.57" width="5.11" height="1.19"/><path d="M83.76,42H79.53l.51.51v-7l-.51.51h4.23l-.51-.51v7Zm.1-7h-5v8.28h5.47V35Z"/><polygon points="86.9 44.89 86.88 33.74 87.4 33.74 87.4 32.51 85.97 32.51 78.82 32.51 78.82 33.74 86.16 33.74 85.65 33.23 85.67 44.89 86.9 44.89"/><path d="M103.51,41.19h-.92v-6h.69V34.06h-.69V32.41h-1.27v1.65H97V32.33H95.83v1.73H89.06V44.92h1.1V39.86h.68V45h6.27V42.18h4.28v2.74h1.17V42.18h1Zm-2.19-4.06L97,40.61V39.24l4.3-3.63Zm0,1.28v2.78H97.89Zm-1-3.26L97,37.93V35.15Zm-4.49,6H93.5V39.86h1.68V36.39H93.5V35.15h2.33Zm-5.67-6h.68v1.24h-.68Zm1.67,0h.68v1.24h-.68Zm.68,2.24v1.47h-.68V37.39Zm1,0h.69v1.47H93.5Zm-3.34,1.47V37.39h.68v1.47Zm2.35,1v1.33h-.68V39.86Zm0,2.32V44h-.68V42.18ZM95.92,44H93.5V42.18h2.42Z"/><polygon points="115.07 35.25 117.34 37.3 118.86 37.33 115.59 34.56 115.07 35.25"/></svg>