<?xml version="1.0" encoding="UTF-8"?>
<svg width="512" height="512" version="1.1" viewBox="0 0 512 512" xmlns="http://www.w3.org/2000/svg">
 <defs>
  <linearGradient id="d" x1="262" x2="262" y1="199.8" y2="453.9" gradientUnits="userSpaceOnUse">
   <stop stop-color="#5cd5ff" offset="0"/>
   <stop stop-color="#2b58ff" offset="1"/>
  </linearGradient>
  <linearGradient id="h" x1="149.6" x2="166.9" y1="155.8" y2="325.7" gradientUnits="userSpaceOnUse">
   <stop stop-color="#a43dff" offset="0"/>
   <stop stop-color="#d274ff" offset="1"/>
  </linearGradient>
  <linearGradient id="i" x1="208.5" x2="238.2" y1="239.2" y2="92.1" gradientUnits="userSpaceOnUse">
   <stop stop-color="#ff996c" offset="0"/>
   <stop stop-color="#ff223c" offset="1"/>
  </linearGradient>
  <linearGradient id="j" x1="232.7" x2="393" y1="153.4" y2="141.8" gradientUnits="userSpaceOnUse">
   <stop stop-color="#ffdd57" offset="0"/>
   <stop stop-color="#ff8f29" offset="1"/>
  </linearGradient>
  <linearGradient id="b" x1="256" x2="256" y1="27.5" y2="474.8" gradientUnits="userSpaceOnUse">
   <stop stop-color="#f4f5f8" offset="0"/>
   <stop stop-color="#d7dae3" offset="1"/>
  </linearGradient>
  <filter id="c" x="-.02124" y="-.0194" width="1.042" height="1.039">
   <feGaussianBlur result="blur" stdDeviation="2.7"/>
  </filter>
  <radialGradient id="a" cx="256" cy="257" r="238.5" gradientUnits="userSpaceOnUse">
   <stop stop-opacity=".4" offset=".86"/>
   <stop stop-opacity="0" offset="1"/>
  </radialGradient>
 </defs>
 <ellipse cx="256" cy="256.5" rx="238.5" ry="238" fill="url(#a)"/>
 <circle cx="256" cy="251" r="224" fill="url(#b)"/>
 <path d="M220.4 84.25c-6.431 7.297-70.85 83.44-39.16 178.3.373 1.161 2.192.877 2.162-.332-1.912-67.88 44.3-118.1 96.49-155.5 8.15-4.366-55.95-26.34-59.49-22.42zm148 13.56c-100.1 8.845-159.8 99.3-154.4 103.1.89.63 16.51-15.8 49.03-15.8 48.32 0 87.5 39.18 87.5 87.5s-39.18 87.5-87.5 87.5c-40.17 0-122.4-38.17-101.7-198.8 1.531-9.898-57.52 18.85-58.12 24.6.376 4.76 2.903 31.21 16.57 62.6-1.49 8.118-2.166 16.36-2.247 24.61 0 80.63 65.37 146 146 146s146-65.37 146-146c0-51.08-26.23-96.04-65.97-122.1 16.6-.174 33.29 1.123 49.64 3.318.959.11 1.18-.068 1.1-1.316-2.24-27.21-25.25-55.25-25.9-55.19z" style="fill-opacity:.15;filter:url(#c)"/>
 <path d="M342 146.9c39.73 26.09 65.97 71.05 65.97 122.1 0 80.63-65.37 146-146 146s-146-65.37-146-146c0-8.472.722-16.78 2.107-24.85 13.83 31.98 39.14 68.95 85.31 92.54.486.247 1.082.1 1.393-.344.244-.35.253-.797.05-1.148 15.26 12.98 35.04 20.81 56.64 20.81 48.32 0 87.5-39.18 87.5-87.5s-39.18-87.5-87.5-87.5c-15.93 0-30.87 4.257-43.73 11.7 34.06-33.5 77.86-45.05 122.5-45.8z" fill="url(#d)"/>
 <path d="M158.3 156a73 73 0 0 0-25.59 6.873 189 189 0 0 0-30.36 17.88c-.388.224-.64.622-.672 1.065.758 9.593 10.57 108.3 101.7 154.9.486.247 1.082.1 1.393-.344s.24-1.048-.164-1.41c-50.5-47.43-54.43-115.2-44.85-177.7.124-.913-.36-1.19-1.503-1.21z" fill="url(#h)"/>
 <path d="M278.1 100.9c-6.875-5.61-14.79-9.931-23.33-12.74a200 200 0 0 0-34.69-8.332c-.553-.01-.94-.016-1.222.296-6.431 7.297-70.85 83.44-39.16 178.3.162.506.689.82 1.234.736s.941-.54.928-1.068c-1.912-67.88 44.31-118.1 96.49-155.5.67-.36.514-.944-.247-1.645z" fill="url(#i)"/>
 <path d="M392.8 148.9a69.4 69.4 0 0 0-6.939-25.03c-5.009-10.39-11-20.29-17.9-29.55-.315-.433-.58-.652-1.066-.607-9.598.849-108.4 11.79-154.8 101.9-.182.457-.027.98.376 1.264s.95.262 1.326-.058c47.39-50.17 115.2-54.97 177.9-46.56.802.281 1.399.024 1.1-1.317z" fill="url(#j)"/>
</svg>
