<?xml version="1.0" encoding="UTF-8"?>
<svg version="1.1" xmlns="http://www.w3.org/2000/svg" width="2600" height="677">
<path d="M0 0 C36.3 0 72.6 0 110 0 C110.33 41.25 110.66 82.5 111 125 C116.40606092 118.86121409 116.40606092 118.86121409 121.5625 112.5625 C125.31755075 107.82659779 129.15121094 103.15967509 133 98.5 C137.42365941 93.14164163 141.81788452 87.76459086 146.140625 82.32421875 C148.99831071 78.75211161 151.91264458 75.22677077 154.8203125 71.6953125 C157.4956497 68.38709983 160.05740323 65.00052661 162.58984375 61.58203125 C163.05519531 61.05996094 163.52054688 60.53789062 164 60 C164.66 60 165.32 60 166 60 C166.2578125 59.43410156 166.515625 58.86820313 166.78125 58.28515625 C168.12854114 55.75898537 169.71418175 53.67355633 171.5 51.4375 C173.44386398 48.99531495 175.26651515 46.60022728 177 44 C177.66 44 178.32 44 179 44 C179.26167969 43.42765625 179.52335937 42.8553125 179.79296875 42.265625 C181.08949469 39.83201643 182.56851342 37.88610347 184.3125 35.75 C185.36050781 34.45835937 185.36050781 34.45835937 186.4296875 33.140625 C187.2861277 32.09347949 188.14293673 31.0466356 189 30 C190.72086433 27.89454466 192.44074939 25.78830575 194.15893555 23.68066406 C195.33540808 22.23821346 196.51392591 20.79742836 197.69458008 19.35839844 C198.23751709 18.69356445 198.7804541 18.02873047 199.33984375 17.34375 C199.82831787 16.74755859 200.31679199 16.15136719 200.82006836 15.53710938 C202.08249573 13.99324333 202.08249573 13.99324333 203 12 C203.66 12 204.32 12 205 12 C205.28334639 11.42648552 205.56669277 10.85297104 205.85862541 10.26207733 C206.23527903 9.51559181 206.61193264 8.76910629 207 8 C207.33738253 7.30413033 207.67476505 6.60826065 208.02237129 5.89130402 C210.13926285 2.33155152 211.72304888 0.3258956 215.83019638 -0.7223053 C219.51233694 -0.9881725 223.1170237 -0.98890011 226.80810547 -0.90820312 C228.21783824 -0.90594474 229.62758042 -0.90721671 231.03730774 -0.91174316 C234.85377625 -0.91403413 238.66822413 -0.86707999 242.48422384 -0.8111515 C246.47596011 -0.76106307 250.46774528 -0.75643566 254.45974731 -0.74694824 C262.01421907 -0.72210555 269.56776213 -0.65648825 277.12182534 -0.57615232 C285.72384584 -0.48666193 294.32591125 -0.44272955 302.92828155 -0.40258884 C320.61938044 -0.31901904 338.3096155 -0.17835047 356 0 C355.07367861 1.42017003 354.14315676 2.83760068 353.2109375 4.25390625 C352.69321777 5.0435376 352.17549805 5.83316895 351.64208984 6.64672852 C349.57408284 9.61037995 347.24618783 12.2472913 344.83203125 14.9296875 C340.28082233 20.07284471 336.12270968 25.56350826 331.89453125 30.97265625 C330.80473888 32.35681129 329.71489521 33.74092593 328.625 35.125 C327.83863159 36.13929077 327.83863159 36.13929077 327.03637695 37.17407227 C325.73674577 38.81996097 324.37348019 40.41521516 323 42 C322.34 42 321.68 42 321 42 C320.814375 42.66 320.62875 43.32 320.4375 44 C318.76641197 47.48748806 316.64401773 49.84488668 314.0625 52.6953125 C308.39313363 59.03039992 303.08216115 65.68376521 298.19140625 72.63671875 C297.79824219 73.08660156 297.40507813 73.53648437 297 74 C296.34 74 295.68 74 295 74 C294.61134766 74.85078125 294.61134766 74.85078125 294.21484375 75.71875 C292.88347495 78.21881232 291.32605604 80.28512532 289.5625 82.5 C287.79066326 84.73488695 286.03869109 86.94475404 284.40234375 89.28125 C283.70818359 90.13203125 283.70818359 90.13203125 283 91 C282.34 91 281.68 91 281 91 C280.690625 92.0209375 280.690625 92.0209375 280.375 93.0625 C278.53357846 96.99644601 275.89918421 99.79975781 273 103 C268.21327725 108.39229203 263.67221245 113.88301113 259.32714844 119.63549805 C256.78871514 122.99195248 254.16193382 126.2160521 251.375 129.3671875 C249.19170989 131.9598445 247.25070783 134.7281639 245.296875 137.49609375 C244.86890625 137.99238281 244.4409375 138.48867188 244 139 C243.34 139 242.68 139 242 139 C241.74347656 139.56589844 241.48695313 140.13179687 241.22265625 140.71484375 C239.85952204 143.26255465 238.26364929 145.32316138 236.4375 147.5625 C235.36435547 148.88314453 235.36435547 148.88314453 234.26953125 150.23046875 C233.52058594 151.14441406 232.77164062 152.05835938 232 153 C231.28199219 153.88300781 230.56398438 154.76601563 229.82421875 155.67578125 C228.73560547 157.01189453 228.73560547 157.01189453 227.625 158.375 C226.88765625 159.28378906 226.1503125 160.19257813 225.390625 161.12890625 C223.68289366 163.17985811 221.95860801 165.17348239 220.171875 167.15234375 C219.70571777 167.67973145 219.23956055 168.20711914 218.75927734 168.75048828 C217.44258548 170.23623688 216.10844657 171.70646946 214.7734375 173.17578125 C212.73482965 175.86762967 212.73482965 175.86762967 212.99609375 179 C214.12798886 182.38247254 215.6115575 184.78908885 217.6875 187.6875 C220.33314374 191.5011673 222.7772388 195.26686282 224.9375 199.375 C227.24751044 203.74324862 229.7960155 207.87077636 232.5 212 C235.8024793 217.04347512 238.78182759 222.16334814 241.609375 227.4921875 C243.37149485 230.66994296 245.38384625 233.62798016 247.43359375 236.625 C249.87916723 240.33300169 252.06579072 244.18499726 254.28515625 248.03125 C257.95297285 254.38100083 261.77094167 260.63698806 265.625 266.875 C269.04038384 272.41363576 272.40439417 277.9814628 275.75 283.5625 C276.25490967 284.40433838 276.75981934 285.24617676 277.2800293 286.11352539 C279.94840726 290.56585905 282.60923682 295.02255265 285.26171875 299.484375 C285.7937793 300.37697021 286.32583984 301.26956543 286.87402344 302.18920898 C287.88633638 303.88772593 288.89626009 305.58767007 289.90332031 307.28930664 C292.046721 310.88162534 294.22538584 314.3870285 296.68359375 317.7734375 C298.58275033 320.41880568 300.14234025 322.92848764 301.625 325.8125 C304.23357714 330.69285064 307.03693889 335.41538543 309.9375 340.125 C314.67825546 347.82266153 319.35361412 355.5574861 324 363.3125 C324.64702881 364.39225098 325.29405762 365.47200195 325.96069336 366.58447266 C327.12643624 368.5305025 328.29191948 370.47668793 329.45703125 372.4230957 C330.5187093 374.19619884 331.6007045 375.95724333 332.69921875 377.70776367 C334 380 334 380 334 382 C334.66 382 335.32 382 336 382 C336.52207031 382.94617188 337.04414062 383.89234375 337.58203125 384.8671875 C342.36717013 393.48264007 347.34209674 401.95077101 352.54418945 410.32177734 C352.9949585 411.04961426 353.44572754 411.77745117 353.91015625 412.52734375 C354.51549194 413.49788696 354.51549194 413.49788696 355.13305664 414.48803711 C356 416 356 416 356 417 C308.81 417 261.62 417 213 417 C208.545 408.585 208.545 408.585 204 400 C201.7388459 396.24447085 201.7388459 396.24447085 199.453125 392.50390625 C197.11394508 388.47322257 195.11842551 384.27733722 193.1015625 380.078125 C190.97335088 375.81714334 188.57477293 371.70997897 186.20063782 367.58328247 C182.49506336 361.13919617 178.89731113 354.63691256 175.3125 348.125 C174.9719458 347.50736786 174.6313916 346.88973572 174.28051758 346.25338745 C168.92877906 336.5473843 163.64011998 326.80841042 158.37670898 317.05419922 C155.02100457 310.84812 151.57949431 304.7054322 148.0546875 298.59375 C145.3234299 293.83841056 142.65906301 289.04597657 140 284.25 C139.50612793 283.36666992 139.01225586 282.48333984 138.50341797 281.57324219 C137.82110107 280.33815918 137.82110107 280.33815918 137.125 279.078125 C136.71507812 278.33981445 136.30515625 277.60150391 135.8828125 276.84082031 C135 275 135 275 135 273 C134.34 273 133.68 273 133 273 C132.77570313 273.53367187 132.55140625 274.06734375 132.3203125 274.6171875 C130.5610042 277.79227052 128.24667207 280.40098816 125.875 283.125 C124.88431008 284.2776957 123.89473772 285.43135276 122.90625 286.5859375 C122.41640625 287.15795898 121.9265625 287.72998047 121.421875 288.31933594 C118.69384199 291.54388594 116.07958439 294.85848505 113.4609375 298.171875 C112 300 112 300 111 301 C110.89212462 302.50508199 110.85317568 304.01516316 110.84178162 305.52406311 C110.8319928 306.50147964 110.82220398 307.47889618 110.81211853 308.4859314 C110.80636307 309.56702179 110.8006076 310.64811218 110.79467773 311.76196289 C110.78477814 312.8935231 110.77487854 314.02508331 110.76467896 315.19093323 C110.73295406 318.95148589 110.70826325 322.71205121 110.68359375 326.47265625 C110.6630337 329.07197915 110.6420375 331.67129864 110.62062073 334.27061462 C110.57096381 340.42585414 110.52572404 346.58111178 110.48259836 352.73640007 C110.42843247 360.42911977 110.36755663 368.12178442 110.30664062 375.81445312 C110.19795862 389.54292653 110.09946691 403.27144986 110 417 C73.7 417 37.4 417 0 417 C0 279.39 0 141.78 0 0 Z " fill="#F69215" transform="translate(1292,130)"/>
<path d="M0 0 C1.52173828 0.91845703 1.52173828 0.91845703 3.07421875 1.85546875 C13.59591299 8.52608536 23.70803811 16.69201163 31.6328125 26.3515625 C33.09854418 28.18536402 33.09854418 28.18536402 35.4375 30.3125 C61.77651916 57.93634936 70.73138311 95.86841575 70.26171875 132.828125 C69.98429856 143.46866788 68.97415829 154.06460428 65 164 C0.98 164 -63.04 164 -129 164 C-117.8194447 178.90740707 -102.84064984 188.52655836 -84.25 191.625 C-66.82056657 193.42459733 -53.05613533 189.27994619 -38 181 C-34.61664344 179.30832172 -30.7731199 179.87129232 -27.05224609 179.88647461 C-26.12536484 179.88632858 -25.19848358 179.88618256 -24.24351501 179.8860321 C-21.1701323 179.88673054 -18.09680967 179.89451973 -15.0234375 179.90234375 C-12.89637281 179.90420818 -10.7693077 179.90563196 -8.64224243 179.90663147 C-3.03624288 179.91045472 2.56973088 179.92028338 8.17572021 179.93133545 C13.89318493 179.9415537 19.61065379 179.94612998 25.328125 179.95117188 C36.55209468 179.9619058 47.7760452 179.97897993 59 180 C58.5361989 181.42584029 58.06938003 182.85069914 57.60131836 184.27514648 C57.34168808 185.06872055 57.0820578 185.86229462 56.81455994 186.67991638 C53.50819066 196.09733657 47.86985123 204.55576746 41.9375 212.5 C41.45547119 213.14590088 40.97344238 213.79180176 40.47680664 214.45727539 C36.98317422 219.00423476 33.11468631 223.01507358 29 227 C27.8553125 228.175625 27.8553125 228.175625 26.6875 229.375 C25.800625 230.24125 24.91375 231.1075 24 232 C23.36191406 232.63421875 22.72382812 233.2684375 22.06640625 233.921875 C-6.57160236 261.15937392 -44.91380748 271.06344495 -83.39453125 270.27734375 C-105.66407731 269.6213163 -126.63976089 262.97096484 -146 252 C-146.67401855 251.61972656 -147.34803711 251.23945312 -148.04248047 250.84765625 C-156.67842836 245.89775894 -164.20355269 240.47592382 -171.3515625 233.54296875 C-174.00253536 230.93013854 -174.00253536 230.93013854 -177.06640625 228.4921875 C-181.71883935 224.53978761 -185.25209061 219.79484607 -189 215 C-189.76957031 214.02289063 -190.53914062 213.04578125 -191.33203125 212.0390625 C-199.97634842 200.81764907 -206.17623438 189.2594646 -211 176 C-211.22961426 175.37689941 -211.45922852 174.75379883 -211.69580078 174.11181641 C-225.23339849 136.98260811 -222.22547031 96.74861717 -205.95776367 61.02368164 C-203.41529941 55.64230336 -200.55226312 50.78061579 -197 46 C-196.28328125 44.948125 -195.5665625 43.89625 -194.828125 42.8125 C-186.14936008 30.12027001 -176.28626109 19.31262978 -164 10 C-163.15179687 9.33613281 -162.30359375 8.67226563 -161.4296875 7.98828125 C-148.10598179 -2.13375786 -133.83512431 -8.80815597 -118 -14 C-116.74960937 -14.4125 -115.49921875 -14.825 -114.2109375 -15.25 C-76.72018174 -26.75957739 -33.25855834 -20.46365057 0 0 Z M-123 78 C-123.64582031 78.60714844 -124.29164063 79.21429688 -124.95703125 79.83984375 C-126.35347466 81.17742069 -127.68554424 82.58177142 -129 84 C-129 84.66 -129 85.32 -129 86 C-93.03 86 -57.06 86 -20 86 C-27.6363074 75.8182568 -34.57531805 69.47950099 -46 64 C-46.94875 63.53464844 -47.8975 63.06929688 -48.875 62.58984375 C-74.83265585 50.75011509 -103.24632311 58.72896094 -123 78 Z " fill="#2777EA" transform="translate(900,277)"/>
<path d="M0 0 C0 0.66 0 1.32 0 2 C0.87978516 2.40412109 0.87978516 2.40412109 1.77734375 2.81640625 C5.70495458 4.90791079 8.75121573 7.99146196 12 11 C13.25876953 12.14275391 13.25876953 12.14275391 14.54296875 13.30859375 C34.08080805 31.83148036 47.17781313 56.88741258 53 83 C53.17354004 83.71833008 53.34708008 84.43666016 53.52587891 85.17675781 C61.49575899 118.77480816 55.63405968 156.01875086 39 186 C38.43410156 187.05574219 37.86820312 188.11148438 37.28515625 189.19921875 C31.33740265 199.90517522 23.94270574 209.62275809 15 218 C12.59777585 220.39058171 10.20570062 222.78833704 7.84375 225.21875 C-5.31800606 238.0295259 -21.81677337 246.857328 -39 253 C-40.25151715 253.47339015 -41.5028236 253.94733774 -42.75390625 254.421875 C-76.24957237 266.49878537 -116.27545421 263.79322534 -148.46484375 249.01171875 C-152.37854028 247.13065342 -156.19671305 245.09350383 -160 243 C-161.07765625 242.42378906 -162.1553125 241.84757812 -163.265625 241.25390625 C-170.51656319 237.22870595 -176.77196019 232.45828208 -183 227 C-183.9796875 226.154375 -184.959375 225.30875 -185.96875 224.4375 C-197.48753442 214.32045274 -206.26400213 203.21862022 -214 190 C-214.87104654 188.70566399 -215.74551289 187.41361561 -216.625 186.125 C-222.64007436 176.50493158 -225.89831143 164.80722879 -229 154 C-229.27714844 153.11183594 -229.55429688 152.22367188 -229.83984375 151.30859375 C-239.32723375 119.63675948 -234.5775428 81.6378546 -219.82421875 52.36328125 C-219.22222656 51.25339844 -218.62023437 50.14351563 -218 49 C-217.66822754 48.38560059 -217.33645508 47.77120117 -216.99462891 47.13818359 C-213.39429685 40.51865544 -209.75176463 33.8698269 -205 28 C-204.34 28 -203.68 28 -203 28 C-202.77570313 27.29617188 -202.55140625 26.59234375 -202.3203125 25.8671875 C-200.71767532 22.3869044 -198.4803943 19.87296274 -195.875 17.125 C-195.3792749 16.59543701 -194.8835498 16.06587402 -194.37280273 15.52026367 C-190.46798085 11.3956653 -186.44367572 7.54513835 -182 4 C-180.7315625 2.97519531 -180.7315625 2.97519531 -179.4375 1.9296875 C-128.69215246 -37.64616779 -51.29523277 -41.77336321 0 0 Z M-138.57958984 69.94140625 C-152.66688137 85.19644284 -156.73454492 103.52595224 -156.12304688 123.61962891 C-155.32512876 139.05554477 -146.76056541 153.39738784 -136 164 C-135.47277344 164.62003906 -134.94554687 165.24007812 -134.40234375 165.87890625 C-125.92932459 175.56545245 -110.43291307 181.85292312 -97.9375 183.75 C-96.638125 183.8325 -95.33875 183.915 -94 184 C-93.2059375 184.0515625 -92.411875 184.103125 -91.59375 184.15625 C-74.66245154 184.75382524 -58.01292112 178.93704823 -45.07421875 167.9453125 C-44.38972656 167.30335938 -43.70523438 166.66140625 -43 166 C-42.18144531 165.23429687 -41.36289062 164.46859375 -40.51953125 163.6796875 C-26.94640252 149.92175067 -21.01950872 132.1380569 -21 113 C-22.18155639 93.12836984 -31.33589777 76.1618833 -46 63 C-74.24494292 40.58582854 -113.92051336 44.5417509 -138.57958984 69.94140625 Z " fill="#2776EA" transform="translate(302,286)"/>
<path d="M0 0 C154.73449612 0 154.73449612 0 185 23 C185.90621094 23.68578125 186.81242188 24.3715625 187.74609375 25.078125 C213.33227554 45.25673078 229.50934189 73.29075815 234.56640625 105.62109375 C238.50048791 139.30716469 229.37497028 171.0954671 209 198 C206.11908407 201.45613236 203.10750482 204.74755559 200 208 C199.4740625 208.58910156 198.948125 209.17820312 198.40625 209.78515625 C178.95563038 230.77396262 148.94458648 241.86698503 121 244 C117.46486143 244.1192278 113.93525678 244.11778604 110.3984375 244.09765625 C109.11610229 244.09614563 109.11610229 244.09614563 107.80786133 244.09460449 C104.66356026 244.08943616 101.51927855 244.0754758 98.375 244.0625 C91.32125 244.041875 84.2675 244.02125 77 244 C77 260.17 77 276.34 77 293 C51.59 293 26.18 293 0 293 C0 196.31 0 99.62 0 0 Z M77 78 C77 107.04 77 136.08 77 166 C114.02907541 168.64771604 114.02907541 168.64771604 144.73828125 153.34375 C155.22275024 141.85688992 157.79399086 130.09802964 157.14355469 115.03173828 C156.44591014 105.15793224 150.26763207 95.64933219 143.0625 89.125 C141.72891523 88.05711028 140.37500557 87.01400024 139 86 C138.37351562 85.52820313 137.74703125 85.05640625 137.1015625 84.5703125 C120.05131564 72.80912181 95.25826503 78 77 78 Z " fill="#297AEC" transform="translate(402,254)"/>
<path d="M0 0 C0 0.66 0 1.32 0 2 C0.5775 2.226875 1.155 2.45375 1.75 2.6875 C4.59591381 4.34761639 5.99841921 6.39187957 8 9 C8.7425 9.70125 9.485 10.4025 10.25 11.125 C32.91920078 34.82461899 39.38338045 67.55318899 39.22705078 99.16821289 C39.22648469 100.80616753 39.22680707 102.44412268 39.22793579 104.08207703 C39.22850261 108.46940621 39.21685883 112.85662292 39.20278788 117.24392629 C39.19016687 121.85096091 39.18910116 126.45799897 39.18673706 131.06504822 C39.18055535 139.76266813 39.16418999 148.46023693 39.14403808 157.15783447 C39.11736362 168.92960903 39.10667966 180.70139786 39.09503365 192.47319508 C39.07630648 210.98216823 39.03643896 229.4910336 39 248 C13.26 248 -12.48 248 -39 248 C-39.03738281 236.13289063 -39.07476563 224.26578125 -39.11328125 212.0390625 C-39.14355832 204.51951958 -39.174583 196.99999206 -39.20898438 189.48046875 C-39.26344449 177.54607543 -39.31485867 165.61172484 -39.34643555 153.67724609 C-39.36944833 144.98488203 -39.40288298 136.29263037 -39.44870156 127.60035551 C-39.47258955 123.00016144 -39.49134729 118.40007839 -39.49761391 113.79982376 C-39.50368481 109.46432491 -39.52375673 105.12910995 -39.55427551 100.79371643 C-39.5630237 99.20795543 -39.56678503 97.62215728 -39.56500816 96.03637314 C-39.55454869 82.38682031 -41.39854952 71.95044097 -50 61 C-57.69760357 53.43015749 -67.88789171 48.92364596 -78.625 48.75 C-90.76806563 48.94298271 -99.04036926 52.72151077 -108 61 C-114.9839772 69.24879197 -118.10137594 78.16005355 -118.15821838 88.90327454 C-118.16315636 89.58541635 -118.16809434 90.26755817 -118.17318195 90.97037095 C-118.1885014 93.248881 -118.19690244 95.527363 -118.20532227 97.8059082 C-118.21490516 99.44209539 -118.22491548 101.07828012 -118.23532104 102.71446228 C-118.26233159 107.15202548 -118.28336199 111.58959927 -118.30332303 116.02719903 C-118.32520635 120.66636089 -118.35258356 125.30549024 -118.37937927 129.94462585 C-118.42927444 138.72760143 -118.47422505 147.51059509 -118.51740164 156.29360598 C-118.5760383 168.16342872 -118.64230811 180.03320867 -118.70815182 191.9029932 C-118.81167682 210.60196663 -118.90499902 229.30097682 -119 248 C-144.74 248 -170.48 248 -197 248 C-197 158.9 -197 69.8 -197 -22 C-190.16270696 -22 -184.61223005 -21.87000839 -178.125 -20.375 C-177.34979004 -20.1989624 -176.57458008 -20.0229248 -175.77587891 -19.84155273 C-165.85433036 -17.43062261 -157.48451776 -12.5475693 -149 -7 C-148.47535156 -7.4125 -147.95070313 -7.825 -147.41015625 -8.25 C-132.41289953 -19.42931949 -113.5341747 -26.80017299 -95 -29 C-94.10667969 -29.12246094 -93.21335937 -29.24492187 -92.29296875 -29.37109375 C-58.90529423 -33.15347366 -25.27668886 -21.84820181 0 0 Z " fill="#2776E9" transform="translate(2493,299)"/>
<path d="M0 0 C0 0.66 0 1.32 0 2 C0.99 2.309375 0.99 2.309375 2 2.625 C17.6657018 9.80511332 30.37154301 25.59839667 39 40 C39.51304687 40.77730469 40.02609375 41.55460937 40.5546875 42.35546875 C56.91518566 67.65914077 56.7348547 97.98125833 56.50696969 126.96332932 C56.47525921 131.69174212 56.47274086 136.4201789 56.46684265 141.14868164 C56.4514333 150.06223186 56.41058379 158.97546765 56.3600952 167.88888073 C56.29322362 179.9621738 56.26666265 192.03555566 56.23758411 204.10898781 C56.19086921 223.07289308 56.09117243 242.03613552 56 261 C30.26 261 4.52 261 -22 261 C-22.02578125 248.98851562 -22.0515625 236.97703125 -22.078125 224.6015625 C-22.10329213 216.99086912 -22.12946122 209.38020102 -22.16015625 201.76953125 C-22.20868748 189.69026872 -22.25313464 177.6110903 -22.27099609 165.53173828 C-22.28402413 156.73387678 -22.31101824 147.93618649 -22.35461307 139.13842142 C-22.37720193 134.48230238 -22.39291222 129.8263943 -22.39188385 125.17021561 C-22.39113572 120.78212135 -22.40914782 116.39449297 -22.44116783 112.00651932 C-22.44964344 110.40140917 -22.45143273 108.79624662 -22.44580269 107.19112396 C-22.41916967 98.42643824 -22.81145096 90.88489597 -27 83 C-27.46921875 82.09765625 -27.9384375 81.1953125 -28.421875 80.265625 C-31.91507965 74.96417324 -35.6546415 71.4072753 -41 68 C-41.58910156 67.60941406 -42.17820312 67.21882813 -42.78515625 66.81640625 C-51.39089032 61.46477663 -61.20859323 60.68922331 -71.015625 62.58203125 C-81.29344717 65.5281609 -90.35854042 71.27804236 -95.625 80.75 C-96.45961484 82.47992895 -97.25440421 84.2298805 -98 86 C-98.35835937 86.80953125 -98.71671875 87.6190625 -99.0859375 88.453125 C-100.91266729 93.5429875 -101.12943972 98.57832509 -101.15821838 103.94760132 C-101.16315636 104.62243045 -101.16809434 105.29725959 -101.17318195 105.99253809 C-101.18846716 108.24030301 -101.19689303 110.48803957 -101.20532227 112.73583984 C-101.21490786 114.35247036 -101.22491834 115.96909841 -101.23532104 117.58572388 C-101.26230234 121.96537834 -101.28334849 126.34504351 -101.30332303 130.72473478 C-101.32522448 135.30516721 -101.35259279 139.88556691 -101.37937927 144.4659729 C-101.42924999 153.13558395 -101.47420963 161.80521322 -101.51740164 170.47485983 C-101.57606537 182.19301376 -101.642322 193.91112459 -101.70815182 205.62924004 C-101.81163856 224.08613097 -101.90498617 242.543059 -102 261 C-127.41 261 -152.82 261 -179 261 C-179 171.9 -179 82.8 -179 -9 C-163.27865172 -9 -148.60569622 -5.87266409 -136.03515625 3.9609375 C-134.01548205 5.20801519 -134.01548205 5.20801519 -131.546875 4.859375 C-128.68740933 3.89452462 -126.65621841 2.60893451 -124.1875 0.875 C-85.32882797 -24.59495058 -39.6129277 -20.12085216 0 0 Z " fill="#2776E9" transform="translate(1193,286)"/>
<path d="M0 0 C25.74 0 51.48 0 78 0 C78.04898437 7.17492187 78.09796875 14.34984375 78.1484375 21.7421875 C78.18384116 26.2994929 78.21981112 30.85677983 78.2578125 35.4140625 C78.31801804 42.6405975 78.3761763 49.8671068 78.421875 57.09375 C78.4588678 62.92286994 78.50526534 68.75184743 78.55806351 74.58084488 C78.57653326 76.79984146 78.59166831 79.01886849 78.60334396 81.23791122 C78.62033384 84.3565084 78.64939887 87.47478456 78.68115234 90.59326172 C78.68331253 91.50173355 78.68547272 92.41020538 78.68769836 93.34620667 C78.84787267 105.73684847 81.48284004 116.47091123 90.0625 125.75 C99.9599885 135.11607972 110.60720346 137.50344334 123.7265625 137.27734375 C129.09927461 137.04145141 133.3336027 135.65702337 138 133 C138.76570313 132.5875 139.53140625 132.175 140.3203125 131.75 C149.30498648 126.38965214 154.94257254 118.64721009 158.30859375 108.8359375 C159.98243418 101.97035474 160.15975027 95.12383828 160.20532227 88.09570312 C160.21522186 87.138685 160.22512146 86.18166687 160.23532104 85.19564819 C160.26670685 82.05753994 160.29160211 78.91941659 160.31640625 75.78125 C160.33699561 73.59549585 160.35799258 71.40974551 160.37937927 69.22399902 C160.43439534 63.48989964 160.48389434 57.75576554 160.53222656 52.02160645 C160.59145724 45.13150259 160.6575719 38.24146173 160.72252655 31.35140991 C160.82027832 20.90097864 160.9093106 10.45050569 161 0 C186.41 0 211.82 0 238 0 C238.12032643 26.48072723 238.12032643 26.48072723 238.14648438 37.8671875 C238.16433903 45.60227724 238.18534031 53.3372593 238.22631836 61.07226562 C238.2591864 67.31631263 238.2769103 73.56024397 238.28463173 79.80437088 C238.29012638 82.17310021 238.30085426 84.54182402 238.31719017 86.91050339 C238.56420661 124.25114478 229.07952754 155.40186297 202.5625 182.6875 C200.62890625 184.63671875 200.62890625 184.63671875 199 186 C198.34 186 197.68 186 197 186 C196.67 186.99 196.34 187.98 196 189 C194.42456055 190.34692383 194.42456055 190.34692383 192.38671875 191.70703125 C191.63865967 192.2086377 190.89060059 192.71024414 190.11987305 193.22705078 C189.31718994 193.75024902 188.51450684 194.27344727 187.6875 194.8125 C186.87385986 195.34858887 186.06021973 195.88467773 185.22192383 196.43701172 C165.8847003 209 165.8847003 209 158 209 C158 236.72 158 264.44 158 293 C132.26 293 106.52 293 80 293 C80 265.28 80 237.56 80 209 C76.7 208.01 73.4 207.02 70 206 C57.81410198 200.60788315 45.79630022 192.61261225 36.74609375 182.7890625 C34.98649179 180.89539988 34.98649179 180.89539988 32.62109375 179.2109375 C29.37749457 176.474906 27.08570173 173.43505602 24.625 170 C24.14385742 169.33210449 23.66271484 168.66420898 23.16699219 167.97607422 C7.07598126 145.36124297 -0.21978401 120.99690294 -0.11352539 93.31787109 C-0.11367142 92.30203949 -0.11381744 91.28620789 -0.1139679 90.23959351 C-0.11327716 86.91751897 -0.10552442 83.59550212 -0.09765625 80.2734375 C-0.09578909 77.95602448 -0.09436659 75.63861107 -0.09336853 73.32119751 C-0.08956685 67.24842217 -0.07975682 61.17567109 -0.06866455 55.10290527 C-0.05659211 47.80230714 -0.052037 40.50170086 -0.04621124 33.20109558 C-0.03654366 22.1340469 -0.01737068 11.06705134 0 0 Z " fill="#2A7BEC" transform="translate(1658,254)"/>
<path d="M0 0 C25.74 0 51.48 0 78 0 C78 71.28 78 142.56 78 216 C115.95 216 153.9 216 193 216 C193 241.41 193 266.82 193 293 C129.31 293 65.62 293 0 293 C0 196.31 0 99.62 0 0 Z " fill="#236EE6" transform="translate(1939,254)"/>
<path d="M0 0 C25.41 0 50.82 0 77 0 C77 72.93 77 145.86 77 221 C51.59 221 26.18 221 0 221 C0 148.07 0 75.14 0 0 Z " fill="#236DE5" transform="translate(2176,326)"/>
<path d="M0 0 C25.41 0 50.82 0 77 0 C77 17.49 77 34.98 77 53 C51.59 53 26.18 53 0 53 C0 35.51 0 18.02 0 0 Z " fill="#3798F9" transform="translate(2176,254)"/>
</svg>
