<?xml version="1.0" encoding="UTF-8"?>
<svg width="512" height="512" version="1.1" viewBox="0 0 512 512" xmlns="http://www.w3.org/2000/svg">
 <path d="m136 1c-74.6-0.179-135 60.5-135 135 0.179 74.6 61 135 136 136l33.5 0.0801-0.0712-9e-3c0.0237 6e-5 0.0301-5e-5 0.0534 0h9e-3c30.5 0.0693 57 0.131 70 0.16 0.0387 17.8 0.163 74.9 0.231 104 0.179 74.6 61 135 136 136 74.6 0.179 135-60.5 135-135-0.179-74.6-61-135-136-136-8.74-0.0209-18-0.0401-31.6-0.0711-31-0.0707-58.7-0.131-71.9-0.16-0.0386-17.8-0.163-74.9-0.231-104-0.179-74.6-61-135-136-136zm-0.0801 31.9c4.39 0.0105 8.71 0.326 13 0.863v115h-115c-0.506-4.13-0.799-8.32-0.81-12.6-0.137-57.3 45.8-103 103-103zm44.9 10.2c34.8 16.7 58.8 52.3 58.9 93.5 0.0685 28.5 0.191 85.5 0.231 103-17.9-0.0396-74.8-0.163-103-0.231-41.4-0.0993-77-24.3-93.7-59.3h138v-137zm91.1 229c17.9 0.0396 74.8 0.163 103 0.231 41.9 0.101 78 24.9 94.3 60.7h-137v136c-35.5-16.5-60-52.4-60.1-94.1-0.0685-28.5-0.191-85.5-0.231-103zm92.2 92.8h114c0.401 3.68 0.623 7.41 0.632 11.2 0.138 57.3-45.8 103-103 103-3.98-9e-3 -7.9-0.269-11.8-0.712v-114z" fill="#35b9ab"/>
</svg>
