<?xml version="1.0" encoding="UTF-8"?>
<svg width="512" height="512" version="1.1" viewBox="0 0 512 512" xmlns="http://www.w3.org/2000/svg">
 <path d="m255 1.02a15.9 16.5 0 0 0-10.5 4.74l-175 181a15.9 16.5 0 0 0 0 23.3l175 181a15.9 16.5 0 0 0 22.4 0l175-181a15.9 16.5 0 0 0 0-23.3l-175-181a15.9 16.5 0 0 0-12-4.74zm0.737 39.7 152 158-152 158-152-158zm-190 256v16.5a15.9 16.5 0 0 0 4.66 11.6l175 181a15.9 16.5 0 0 0 22.4 0l175-181a15.9 16.5 0 0 0 4.66-11.6 15.9 16.5 0 0 0 0-0.743v-15.7h-15.9a15.9 16.5 0 0 0-11.2 4.84l-163 169-163-169a15.9 16.5 0 0 0-11.2-4.74v-0.0251z" fill="#fbc75d"/>
</svg>
