<?xml version="1.0" encoding="UTF-8"?>
<svg version="1.1" xmlns="http://www.w3.org/2000/svg" width="225" height="225">
<path d="M0 0 C74.25 0 148.5 0 225 0 C225 74.25 225 148.5 225 225 C150.75 225 76.5 225 0 225 C0 150.75 0 76.5 0 0 Z " fill="#FEFEFE" transform="translate(0,0)"/>
<path d="M0 0 C7.10512006 5.80138692 13.4701862 12.34389677 19.93359375 18.8359375 C21.17890345 20.0831151 22.42443621 21.33007001 23.67018127 22.57681274 C26.92905366 25.83948105 30.18491018 29.10514251 33.44012451 32.37145996 C36.77009779 35.71171062 40.10294673 39.04908931 43.43554688 42.38671875 C49.95983139 48.92168893 56.48092996 55.45982831 63 62 C61.36934355 66.13625009 58.36776548 68.89956599 55.26513672 71.96191406 C54.38687729 72.84061157 54.38687729 72.84061157 53.49087524 73.73706055 C51.55851644 75.66802839 49.61917484 77.59181947 47.6796875 79.515625 C46.33689544 80.85468611 44.99454487 82.19419009 43.65261841 83.53411865 C40.12246283 87.05664429 36.58634194 90.57312203 33.0489502 94.08837891 C29.43917149 97.67768551 25.83505985 101.27267256 22.23046875 104.8671875 C15.15918442 111.91703318 8.08158587 118.96050337 1 126 C-6.10512006 120.19861308 -12.4701862 113.65610323 -18.93359375 107.1640625 C-20.17890345 105.9168849 -21.42443621 104.66992999 -22.67018127 103.42318726 C-25.92905366 100.16051895 -29.18491018 96.89485749 -32.44012451 93.62854004 C-35.77009779 90.28828938 -39.10294673 86.95091069 -42.43554688 83.61328125 C-48.95983139 77.07831107 -55.48092996 70.54017169 -62 64 C-60.36934355 59.86374991 -57.36776548 57.10043401 -54.26513672 54.03808594 C-53.38687729 53.15938843 -53.38687729 53.15938843 -52.49087524 52.26293945 C-50.55851644 50.33197161 -48.61917484 48.40818053 -46.6796875 46.484375 C-45.33689544 45.14531389 -43.99454487 43.80580991 -42.65261841 42.46588135 C-39.12246283 38.94335571 -35.58634194 35.42687797 -32.0489502 31.91162109 C-28.43917149 28.32231449 -24.83505985 24.72732744 -21.23046875 21.1328125 C-14.15918442 14.08296682 -7.08158587 7.03949663 0 0 Z " fill="#FFFEFE" transform="translate(112,23)"/>
<path d="M0 0 C2.80418721 1.95638544 5.10391895 4.33443954 7.47998047 6.78295898 C8.54712029 7.84637512 8.54712029 7.84637512 9.63581848 8.93127441 C11.97758136 11.27212092 14.29728552 13.63359649 16.6171875 15.99609375 C18.2402244 17.62778651 19.86452054 19.25822761 21.49002075 20.88746643 C25.76104961 25.17571532 30.01332837 29.48211367 34.26239014 33.79211426 C37.74147216 37.31484228 41.23359719 40.82447782 44.72649956 44.33349514 C48.88186088 48.50843108 53.03169221 52.68884042 57.1796875 56.87109375 C57.97473568 57.67256773 58.76978386 58.47404171 59.58892441 59.29980278 C61.82771603 61.55950564 64.06275907 63.82284044 66.29638672 66.08764648 C66.96439804 66.7614888 67.63240936 67.43533112 68.32066345 68.1295929 C68.92615524 68.74513031 69.53164703 69.36066772 70.15548706 69.99485779 C70.94795743 70.79763484 70.94795743 70.79763484 71.7564373 71.6166296 C73.72546095 73.80702099 74.02795306 75.18349966 74.4801178 78.15176392 C73.79880238 83.61263742 71.15368881 85.82486492 67.31811523 89.57177734 C66.25233498 90.65354752 66.25233498 90.65354752 65.1650238 91.75717163 C62.8133577 94.13453278 60.43714719 96.48550001 58.05859375 98.8359375 C56.41516719 100.48154002 54.77285319 102.12825431 53.13160706 103.77603149 C49.68828475 107.22516118 46.23287892 110.66157105 42.76831055 114.08935547 C38.32968309 118.48252374 33.92067917 122.90408071 29.52012539 127.33534813 C26.13307738 130.74019903 22.73164817 134.13037995 19.32560921 137.51622391 C17.69427063 139.1410479 16.06723211 140.77020107 14.44460869 142.40372849 C12.17323768 144.68563828 9.88344296 146.94729095 7.58764648 149.20458984 C6.92085876 149.8819519 6.25407104 150.55931396 5.56707764 151.25720215 C2.62068302 154.11801957 0.38687896 155.84830828 -3.47422791 157.36221313 C-8.83969159 156.81100297 -11.33607039 153.74574999 -15 150 C-16.17991692 148.87325524 -17.36107189 147.74780526 -18.5435791 146.6237793 C-19.74815459 145.44293918 -20.95033023 144.25964717 -22.15039062 143.07421875 C-22.81480164 142.42119781 -23.47921265 141.76817688 -24.16375732 141.09536743 C-31.01572224 134.35289523 -37.83735212 127.57959675 -44.65625 120.80371094 C-47.8905621 117.5917935 -51.13438128 114.38995118 -54.38671875 111.19628906 C-58.32768027 107.32625413 -62.25132307 103.43944074 -66.16313171 99.53994751 C-67.65312647 98.06036209 -69.14913033 96.58680249 -70.65119934 95.11947632 C-72.74575137 93.07095727 -74.81730895 91.00159329 -76.88476562 88.92578125 C-77.50804749 88.32609528 -78.13132935 87.7264093 -78.77349854 87.10855103 C-81.58093492 84.24568812 -82.87179082 82.53693202 -83.81970215 78.56713867 C-82.62977216 73.38886109 -79.70202984 70.67431975 -76 67 C-75.43557882 66.41322039 -74.87115765 65.82644077 -74.2896328 65.22187996 C-72.57512225 63.44625013 -70.83494957 61.69963899 -69.08666992 59.95727539 C-68.43537109 59.30422424 -67.78407227 58.6511731 -67.11303711 57.97833252 C-64.98799998 55.84894071 -62.85938209 53.72317216 -60.73046875 51.59765625 C-59.24296207 50.10947519 -57.7556038 48.62114577 -56.26838684 47.13267517 C-53.16597885 44.02879929 -50.06178516 40.92672358 -46.95629883 37.82592773 C-42.9703091 33.84566471 -38.98886579 29.86088874 -35.00872326 25.8747797 C-31.94543098 22.80788267 -28.87977192 19.74336043 -25.81337929 16.67956352 C-24.3433823 15.2102345 -22.87413022 13.74015985 -21.40563011 12.26933479 C-19.36161026 10.22278663 -17.3144321 8.17945209 -15.26635742 6.13696289 C-14.65804581 5.52662704 -14.04973419 4.9162912 -13.42298889 4.28746033 C-8.5820029 -0.52899082 -6.83485125 -1.75462282 0 0 Z M-9.059021 18.93460083 C-9.92324677 19.80421951 -9.92324677 19.80421951 -10.80493164 20.69140625 C-11.40979904 21.29612762 -12.01466644 21.900849 -12.63786316 22.52389526 C-14.64767187 24.53440373 -16.65390995 26.54843716 -18.66015625 28.5625 C-20.04856486 29.95277257 -21.43719361 31.34282533 -22.82603455 32.73266602 C-26.48940122 36.39985964 -30.14975564 40.07004586 -33.80950928 43.74084473 C-37.54112762 47.48267339 -41.27556145 51.22168972 -45.00976562 54.9609375 C-52.34261588 62.3045282 -59.67228977 69.65128064 -67 77 C-65.36934355 81.13625009 -62.36776548 83.89956599 -59.26513672 86.96191406 C-58.67963043 87.5477124 -58.09412415 88.13351074 -57.49087524 88.73706055 C-55.55851644 90.66802839 -53.61917484 92.59181947 -51.6796875 94.515625 C-50.33689544 95.85468611 -48.99454487 97.19419009 -47.65261841 98.53411865 C-44.12246283 102.05664429 -40.58634194 105.57312203 -37.0489502 109.08837891 C-33.43917149 112.67768551 -29.83505985 116.27267256 -26.23046875 119.8671875 C-19.15918442 126.91703318 -12.08158587 133.96050337 -5 141 C2.10512006 135.19861308 8.4701862 128.65610323 14.93359375 122.1640625 C16.17890345 120.9168849 17.42443621 119.66992999 18.67018127 118.42318726 C21.92905366 115.16051895 25.18491018 111.89485749 28.44012451 108.62854004 C31.77009779 105.28828938 35.10294673 101.95091069 38.43554688 98.61328125 C44.95983139 92.07831107 51.48092996 85.54017169 58 79 C56.36898001 74.86921365 53.37644977 72.10203354 50.28100586 69.03808594 C49.69710587 68.4522876 49.11320587 67.86648926 48.51161194 67.26293945 C46.58420501 65.33183357 44.64970289 63.40801187 42.71484375 61.484375 C41.37451852 60.14524184 40.03456269 58.80573885 38.69496155 57.46588135 C35.88948675 54.66196972 33.08068585 51.86144816 30.26928711 49.06347656 C26.65687414 45.46809414 23.05112018 41.86612273 19.44759274 38.26183701 C16.68306325 35.49757869 13.91594109 32.73592851 11.14792061 29.97516632 C9.81678551 28.64722338 8.48626401 27.31866507 7.1563549 25.98949432 C5.30327618 24.13857106 3.44695035 22.29097098 1.58959961 20.44433594 C1.03529266 19.88957581 0.48098572 19.33481567 -0.09011841 18.76324463 C-4.63238713 14.2594647 -4.53952867 14.42698644 -9.059021 18.93460083 Z " fill="#FBC75F" transform="translate(117,8)"/>
<path d="M0 0 C8.27131346 -0.94270608 8.27131346 -0.94270608 11.99735641 1.08922005 C13.9042814 2.71358366 15.60670419 4.4248021 17.31396484 6.25805664 C17.97224274 6.92290573 18.63052063 7.58775482 19.30874634 8.27275085 C21.46678746 10.46310175 23.58772739 12.68607354 25.7109375 14.91015625 C27.20906647 16.43965312 28.70981058 17.96659247 30.21304321 19.49107361 C34.15568597 23.50009519 38.06948595 27.53602322 41.97570801 31.58050537 C48.24269441 38.06351229 54.54399545 44.51275236 60.86149979 50.94650078 C63.06511742 53.20135211 65.2509773 55.47241734 67.43563843 57.74562073 C68.77731662 59.12142216 70.11954135 60.49669091 71.46240234 61.87133789 C72.06816101 62.51078339 72.67391968 63.15022888 73.29803467 63.80905151 C75.14565323 65.74152297 75.14565323 65.74152297 78 68 C82.74188948 67.57449376 85.32777024 63.9926375 88.44580078 60.73608398 C89.08381119 60.08244873 89.72182159 59.42881348 90.37916565 58.75537109 C91.76435627 57.33532637 93.14630654 55.91211529 94.52539444 54.48614311 C96.71166659 52.2292111 98.91004537 49.98479008 101.11276245 47.74391174 C107.37483431 41.37188118 113.62616745 34.98982363 119.83984375 28.57055664 C123.64188439 24.64452378 127.46804646 20.74344303 131.3107872 16.85725594 C132.7688685 15.37320099 134.21769431 13.8799923 135.65683365 12.37756157 C137.67453792 10.27289035 139.72156591 8.2014367 141.77783203 6.13452148 C142.65422585 5.19712883 142.65422585 5.19712883 143.54832458 4.24079895 C147.11044862 0.73731212 149.38494897 -0.3666485 154.4513855 -0.38340759 C155.96984638 -0.28600567 157.48779555 -0.16866621 159 0 C159.84586529 6.76692234 159.84586529 6.76692234 157.67273712 9.93484497 C156.80080341 10.87226028 156.80080341 10.87226028 155.91125488 11.82861328 C154.95328758 12.86867523 154.95328758 12.86867523 153.97596741 13.92974854 C153.32389816 14.61293152 152.67182892 15.2961145 152 16 C151.43030991 16.60148865 150.86061981 17.20297729 150.27366638 17.82269287 C148.5251574 19.64475257 146.75726114 21.44577741 144.98242188 23.2421875 C144.31964737 23.91635208 143.65687286 24.59051666 142.97401428 25.28511047 C136.12958336 32.23904912 129.25431608 39.16263621 122.37646484 46.08349609 C119.11604631 49.3663084 115.86569829 52.65863152 112.62353516 55.95947266 C108.69514435 59.95878654 104.7499744 63.940789 100.79212952 67.91094971 C99.29021632 69.42327308 97.79432939 70.94160622 96.30467224 72.46600342 C94.22502244 74.59168121 92.12451716 76.69438556 90.01757812 78.79296875 C89.10402306 79.74191765 89.10402306 79.74191765 88.17201233 80.71003723 C85.27568435 83.55110416 83.5599477 84.86788761 79.54037476 85.81625366 C74.42096101 84.63594352 71.92090155 81.85683083 68.33642578 78.14697266 C67.6054921 77.41866745 66.87455841 76.69036224 66.12147522 75.93998718 C63.71232129 73.53105472 61.32900889 71.09816721 58.9453125 68.6640625 C57.27765369 66.98588365 55.60851413 65.30917508 53.93795776 63.63388062 C49.54631275 59.2211884 45.17651895 54.78744065 40.81048584 50.34942627 C37.23583647 46.72294331 33.64629333 43.11141015 30.0558033 39.50061989 C22.65065428 32.05318707 15.2550608 24.59615839 7.88720703 17.11181641 C7.20049423 16.41770157 6.51378143 15.72358673 5.80625916 15.00843811 C5.18393906 14.37462723 4.56161896 13.74081635 3.92044067 13.08779907 C3.37737841 12.53656687 2.83431614 11.98533466 2.27479744 11.41739845 C-0.84221045 7.95171675 -0.07166142 4.44300815 0 0 Z " fill="#FBC65C" transform="translate(33,126)"/>
</svg>
