<?xml version="1.0" encoding="UTF-8"?>
<svg width="512" height="512" version="1.1" viewBox="0 0 512 512" xmlns="http://www.w3.org/2000/svg">
 <defs>
  <linearGradient id="i" x1="326.8" x2="463.5" y1="244.5" y2="430.1" gradientTransform="matrix(.8682 0 0 .8682 -.3911 20.91)" gradientUnits="userSpaceOnUse">
   <stop style="stop-color:#e7e7e7" offset="0"/>
   <stop style="stop-color:#4a4a4a" offset="1"/>
  </linearGradient>
  <linearGradient id="h" x1="297.2" x2="538.6" y1="179.6" y2="285" gradientTransform="matrix(.8682 0 0 .8682 -.3911 20.91)" gradientUnits="userSpaceOnUse">
   <stop style="stop-color:#fbfbfb" offset="0"/>
   <stop style="stop-color:#434343" offset="1"/>
  </linearGradient>
  <linearGradient id="g" x1="240.6" x2="276.7" y1="247.9" y2="104.6" gradientTransform="matrix(.8682 0 0 .8682 -.3911 20.91)" gradientUnits="userSpaceOnUse">
   <stop style="stop-color:#acacac" offset="0"/>
   <stop style="stop-color:#404040" offset="1"/>
  </linearGradient>
  <linearGradient id="f" x1="201.5" x2="241.6" y1="234.3" y2="16.73" gradientTransform="matrix(.8682 0 0 .8682 -.3911 20.91)" gradientUnits="userSpaceOnUse">
   <stop style="stop-color:#a3a3a3" offset="0"/>
   <stop style="stop-color:#404040" offset="1"/>
  </linearGradient>
  <linearGradient id="e" x1="91.55" x2="171.1" y1="108.5" y2="257.2" gradientTransform="matrix(.8682 0 0 .8682 -.3911 20.91)" gradientUnits="userSpaceOnUse">
   <stop style="stop-color:#787878" offset="0"/>
   <stop style="stop-color:#b5b5b5" offset="1"/>
  </linearGradient>
  <linearGradient id="d" x1="131.9" x2="185.6" y1="194.6" y2="369.2" gradientTransform="matrix(.8682 0 0 .8682 -.3911 20.91)" gradientUnits="userSpaceOnUse">
   <stop style="stop-color:#737373" offset="0"/>
   <stop style="stop-color:#eee" offset="1"/>
  </linearGradient>
  <linearGradient id="c" x1="216.2" x2="258.3" y1="421.3" y2="303.2" gradientTransform="matrix(.8682 0 0 .8682 -.3911 20.91)" gradientUnits="userSpaceOnUse">
   <stop style="stop-color:#414141" offset="0"/>
   <stop style="stop-color:#c7c7c7" offset="1"/>
  </linearGradient>
  <linearGradient id="b" x1="354.4" x2="289.6" y1="303.1" y2="486.4" gradientTransform="matrix(.8682 0 0 .8682 -.3911 20.91)" gradientUnits="userSpaceOnUse">
   <stop style="stop-color:#d9d9d9" offset="0"/>
   <stop style="stop-color:#414141" offset="1"/>
  </linearGradient>
  <linearGradient id="a" x1="158.6" x2="223.9" y1="34.76" y2="494.9" gradientUnits="userSpaceOnUse">
   <stop style="stop-opacity:.8" offset="0"/>
   <stop offset="1"/>
  </linearGradient>
  <filter id="j" x="-.0199" y="-.0206" width="1.038" height="1.041">
   <feGaussianBlur result="blur" stdDeviation="4 4"/>
  </filter>
 </defs>
 <path d="m159.5 30.88c-18.93 23.53-51.3 66.99-61.5 150-2.834 48.97 10.6 88.47 53.86 114.8 24.97 16.25 85.85 6.705 85.85 6.705s-41.28-6.394-55.28-17.48c-38.44-28.44-44.63-63.91-40.99-99.68 15.39-96.52 4.389-87.84 18.05-154.4zm192.8 8.373c-135.2 30.04-170.9 77.99-184.4 99.1-27.37 37.06-20.12 92.72 11.99 124.7 12.33 12.6 28.75 21.99 46.5 23.72-16.94-8.507-31.07-23.66-36.14-42.18-9.398-30.12-1.777-63.89 16.87-88.92 30.02-41.57 112.9-96.78 120.8-101.6 8.101-4.915 24.35-14.7 24.35-14.7zm-11.19 72.15c-52.53-1.628-107.4 12.63-134.8 67.77-10.43 21.67-13.54 49.46 1.371 69.88 3.361 5.922 21.14 20.09 13.75 4.68-7.648-21.94-3.525-48.44 13.69-64.78 15.71-15.2 32.12-45.42 147.5-44.96 31.15 0.472 58.44 1.957 104.3 9.474 0 0-13.07-8.684-25.35-14.48-17.86-8.424-68-25.94-120.5-27.57zm-16.94 54.36c-32.89 1.989-62.27 15.28-79.16 32.31-11.35 11.89-14.69 31.69-6.195 46.02 1.444 5.39 9.239-12.43 11.58-15.41 13.01-17.17 34.71-25.68 55.91-24.96 74.01-1.968 153.2 64.62 200.1 112.1 2.515 2.731-47.11-105.8-121.2-139.8-20.32-8.576-41.31-11.45-61.05-10.26zm-311.4 24.1c9.645 44.75 42.15 94.64 53.33 107.3 12.85 14.57 51.27 53.96 116.8 55.79 21.87 0.2085 43.56-6.041 62.51-16.83 10.1-8.011 19.15-18.98 19.1-32.56 0 0-13.57 9.647-21.57 12.08-59.26 24.19-131.8-23.77-146.8-64.17-4.913-7.764-40.29-26.61-56.96-40.53-9.297-5.989-26.38-21.1-26.38-21.1zm299.6 24.34c-15.73-0.1013-29.68 4.35-39.08 13.8-5.631 5.412-8.752 19.95 2.247 11.3 12.54-4.261 26.34-2.769 39.09-0.3629 45.6 16.9 59.96 50.14 62.85 95.03 10.05 21.56 15.82 44.8 20.69 68 2.88 13.67 2.845 27.74 5.79 41.38 10.43-24.75 27.24-72.8 23.07-117.4-4.341-70.16-67.47-111.4-114.6-111.7zm-12.82 42.57c-6.835-0.0475-9.286 1.792-1.312 6.19 30.94 16.02 26.09 53.5 18.24 79.11-9.689 23.39-21.22 39.36-34.09 49.18-18.56 32.61-38.45 64.48-64.68 91.58 52.4-22.91 116.3-54.78 140.9-120.9 18.68-64.48-23.79-97.75-43.32-103.2-5.952-1.241-11.63-1.949-15.73-1.977zm-7.983 36.33c-0.2264-8e-3 -0.4566-5e-3 -0.69 0.0113 0 0-4.622 20.57-10.56 29.25-11.53 23.17-43.11 34.85-60.54 39.69-27.94 5.446-56.88 3.905-84.54-2.473-10.3-1.651-19.25 5.646-29.04 7.846-23.29 7.868-47.33 13.52-71.67 16.9 22.43 7.452 48.33 13.99 71.56 17.91 36.39 6.583 73.98 8.195 110.6 2.66 87.7-19.31 101.8-86.13 83.28-106.8-2.364-2.18-4.989-4.87-8.384-4.984z" fill=":url(#a)" filter="url(#j)"/>
 <path d="m154.7 23.29c-18.93 23.52-53.17 66.65-63.37 149.7-2.834 48.97 10.6 88.47 53.86 114.8 43.42 26.84 90.23 8.679 91.48 6.706 0 0-35.14 2.814-64.66-16.97-33.5-28.61-40.88-64.43-37.24-100.2 15.39-96.52 6.265-87.5 19.92-154z" fill="url(#e)"/>
 <path d="m345.4 30.82c-135.2 30.04-170.8 78.5-184.2 99.57-27.38 37.06-20.13 92.72 11.99 124.6 12.33 12.6 28.51 21.87 46.26 23.6-16.93-8.507-30.83-23.54-35.9-42.06-9.399-30.12-1.777-63.9 16.87-88.93 30.02-41.56 112.9-96.8 120.8-101.6 8.101-4.916 24.18-15.21 24.18-15.21z" fill="url(#f)"/>
 <path d="m200.1 169.3c-9.366 19.44-13.7 50.52 1.229 70.96 10.23 12.22 16.49 13.83 16.49 13.83-9.719-16.63-10.08-52.4 10.61-73.09 15.7-15.21 32.12-45.43 147.5-44.97 31.14 0.4721 50.77 0.0803 96.7 7.598 0 0-9.813-8.109-21.08-15.67-29.25-19.62-197.2-67.98-251.5 41.33z" fill="url(#g)"/>
 <path d="m238.3 190.2c-11.36 11.89-13.82 33.39-4.117 49.1 0 0 0.7975-5.607 9.501-18.48 13.01-17.17 34.71-25.68 55.91-24.96 74.01-1.967 158 68.72 204.9 116.2 2.514 2.731-51.93-109.8-126-143.9-54.18-22.87-113.2-5.203-140.2 22.06z" fill="url(#h)"/>
 <path d="m6.12 182c9.645 44.75 42.15 94.64 53.33 107.3 12.85 14.57 51.27 53.97 116.8 55.79 21.87 0.2084 48.53-5.507 62.51-16.83 13.19-10.69 19.15-19.82 19.1-32.56 0 0-13.57 9.646-21.57 12.08-59.26 24.19-131.9-23.77-146.9-64.17-4.913-7.764-40.29-26.61-56.96-40.53-9.297-5.989-26.38-21.1-26.38-21.1z" fill="url(#d)"/>
 <path d="m269.8 221.2c-3.866 4.569-7.855 10.76-7.855 12.84 11.68-6.289 30.88-8.475 46.72-3.22 45.6 16.89 59.19 50.4 62.08 95.29 10.05 21.56 15.82 44.8 20.69 68 2.88 13.67 4.037 30.46 6.983 44.11 10.43-24.75 26.04-75.52 21.87-120.2-5.788-93.54-112.8-134.7-150.5-96.87z" fill="url(#i)"/>
 <path d="m309.8 334.2c-9.692 23.39-21.22 39.36-34.09 49.19-18.56 32.61-37.44 64.83-63.66 91.93 52.41-22.91 115.3-55.12 139.9-121.2 14.04-48.48-13.99-113.4-64.83-102.4 29.94 15.32 33.41 44.17 22.71 82.55z" fill="url(#b)"/>
 <path d="m284.2 285.2s-4.621 20.57-10.56 29.24c-11.53 23.17-43.11 34.85-60.55 39.69-27.94 5.446-56.88 3.905-84.54-2.473-10.3-1.651-19.26 5.648-29.03 7.848-23.29 7.868-47.67 14.2-72.02 17.58 22.43 7.452 48.66 13.31 71.89 17.24 36.39 6.583 73.98 8.195 110.6 2.659 87.7-19.31 101.8-86.14 83.27-106.8-4.887-4.509-9.073-4.973-9.073-4.973z" fill="url(#c)"/>
</svg>
